<?xml version="1.0" encoding="UTF-8" standalone="no"?>
<!DOCTYPE svg PUBLIC "-//W3C//DTD SVG 1.1//EN" "http://www.w3.org/Graphics/SVG/1.1/DTD/svg11.dtd">
<svg xmlns="http://www.w3.org/2000/svg" version="1.1" viewBox="0 0 283 259">
<g stroke-width="2.00" fill="none" stroke-linecap="butt">
<path stroke="#8e939a" vector-effect="non-scaling-stroke" d="
  M 106.71 187.00
  Q 104.61 187.17 102.96 188.28
  A 1.36 1.13 83.5 0 0 102.45 189.06
  Q 101.08 194.81 97.50 199.46"
/>
<path stroke="#8b8684" vector-effect="non-scaling-stroke" d="
  M 97.50 199.46
  C 92.31 204.77 87.30 208.44 84.11 215.42
  Q 83.58 216.59 83.03 215.45
  L 78.72 206.52
  A 0.62 0.54 63.5 0 1 78.92 205.74
  C 87.78 201.19 92.71 189.88 94.09 180.38
  Q 94.45 177.89 92.31 179.21
  C 87.24 182.35 80.07 196.74 77.60 202.29
  Q 77.13 203.34 76.70 202.27
  L 72.48 191.51
  A 0.99 0.79 -27.3 0 1 72.95 190.46
  C 78.36 187.18 80.51 182.74 83.67 176.40
  C 84.51 174.71 88.25 166.52 87.66 165.04
  C 86.65 162.54 76.37 176.70 75.14 178.63
  Q 72.60 182.59 71.55 187.31
  Q 71.35 188.19 71.11 187.42
  L 66.72 173.76
  A 0.67 0.67 68.5 0 1 67.07 172.95
  C 74.80 169.22 79.11 161.34 81.42 153.20
  Q 82.18 150.53 79.84 152.03
  C 75.11 155.06 69.63 163.68 66.31 168.20
  Q 65.45 169.38 65.16 168.06
  L 63.52 160.75
  A 0.74 0.67 -21.7 0 1 63.90 159.98
  C 72.28 155.56 77.45 146.22 79.46 137.17
  Q 79.92 135.09 78.22 136.44
  Q 68.58 144.07 62.91 154.95
  Q 62.21 156.29 62.00 154.99
  L 60.43 145.57
  A 0.68 0.68 73.6 0 1 60.83 144.83
  Q 73.61 139.35 75.83 125.38
  A 0.46 0.46 -85.8 0 0 75.37 124.84
  C 72.01 124.88 62.68 136.92 60.33 139.84
  Q 59.29 141.14 59.22 139.50
  L 59.11 136.93
  A 1.13 0.89 74.5 0 1 59.48 136.05
  Q 68.47 129.48 71.05 118.50
  Q 71.24 117.66 70.74 117.50
  A 1.05 0.64 -51.7 0 0 69.87 117.82
  C 68.93 118.75 61.28 127.90 60.91 127.29
  A 1.18 0.71 -57.7 0 1 60.93 126.37
  C 61.77 124.24 66.68 105.56 62.93 107.52
  A 1.44 1.09 -89.1 0 0 62.35 108.26
  Q 60.17 114.78 58.28 121.41
  C 57.45 124.32 57.89 127.01 57.92 130.00
  Q 57.93 130.53 57.53 130.20
  C 56.10 129.02 55.36 127.00 54.30 125.86
  Q 51.59 122.94 49.77 122.31
  Q 44.80 120.61 47.80 124.93
  Q 51.33 130.01 55.35 133.56
  C 57.21 135.20 58.44 137.10 58.05 139.42
  Q 57.78 141.07 56.79 139.69
  Q 51.70 132.56 43.79 128.66
  Q 42.33 127.94 42.77 129.48
  C 44.55 135.72 52.84 142.02 58.35 144.99
  A 1.36 0.56 21.6 0 1 59.10 145.72
  L 60.76 155.25
  Q 60.87 155.89 60.32 155.54
  C 53.78 151.32 50.24 148.52 42.20 151.47
  Q 38.58 152.80 41.99 154.28
  Q 51.38 158.34 61.42 160.38
  A 1.16 1.14 -0.7 0 1 62.31 161.23
  L 64.24 169.75
  Q 64.52 170.96 63.42 170.53
  Q 54.10 166.94 44.34 170.78
  Q 43.09 171.28 43.36 172.53
  A 0.93 0.81 4.5 0 0 43.98 173.16
  C 50.52 175.15 58.11 174.70 64.77 173.57
  A 0.65 0.50 75.6 0 1 65.37 174.04
  L 69.12 185.92
  Q 69.61 187.46 68.08 186.92
  C 59.92 184.05 53.22 181.58 44.53 184.75
  Q 43.49 185.13 44.39 185.78
  Q 46.11 187.02 48.35 187.32
  Q 59.02 188.74 69.80 190.17
  A 1.10 0.70 -1.7 0 1 70.63 190.66
  L 75.20 202.02
  Q 75.47 202.70 74.70 202.38
  C 68.35 199.75 54.60 196.23 48.23 199.44
  Q 46.60 200.25 48.26 200.89
  Q 61.95 206.16 76.56 205.63
  A 0.68 0.65 76.0 0 1 77.19 206.03
  L 81.33 214.93
  Q 81.62 215.57 80.96 215.33
  Q 68.08 210.66 54.39 212.09
  C 51.37 212.40 52.57 214.31 54.36 215.01
  C 63.54 218.63 73.30 220.92 83.19 219.59
  A 0.82 0.78 71.3 0 1 83.99 220.01
  L 87.85 227.16
  Q 88.27 227.92 87.55 227.58
  Q 75.28 221.73 61.81 224.60
  Q 59.66 225.05 61.47 226.26
  Q 64.86 228.55 68.95 229.71"
/>
<path stroke="#daccc4" vector-effect="non-scaling-stroke" d="
  M 68.95 229.71
  Q 76.53 230.99 84.26 231.65
  C 86.18 231.81 88.61 232.85 91.22 232.34"
/>
<path stroke="#8b8684" vector-effect="non-scaling-stroke" d="
  M 91.22 232.34
  Q 96.66 232.72 100.05 227.11"
/>
<path stroke="#8e939a" vector-effect="non-scaling-stroke" d="
  M 100.05 227.11
  Q 103.68 230.40 108.55 229.28
  A 0.59 0.44 -3.4 0 1 109.29 229.76
  L 108.72 232.00
  Q 108.47 232.98 108.48 233.04
  Q 108.98 236.24 111.95 234.40
  A 1.63 0.49 8.9 0 1 112.99 234.26
  C 135.35 235.62 157.37 234.74 179.71 235.02
  A 0.89 0.69 -6.6 0 1 180.50 235.50
  Q 180.73 236.19 181.44 235.94
  A 1.01 0.42 86.6 0 0 181.76 235.03
  C 181.71 231.09 184.84 232.16 186.48 229.96"
/>
<path stroke="#958f89" vector-effect="non-scaling-stroke" d="
  M 186.48 229.96
  L 189.78 226.34
  A 0.96 0.85 -47.9 0 1 191.05 226.20
  L 195.81 230.44
  A 0.96 0.38 39.2 0 1 196.26 231.25
  L 195.76 232.25
  A 1.27 0.50 -58.4 0 0 195.59 233.22
  C 196.10 234.23 197.49 232.07 197.94 231.37
  A 0.99 0.83 16.0 0 1 198.77 231.00
  Q 214.39 232.00 227.82 224.05
  Q 230.22 222.64 227.44 222.06
  Q 214.27 219.36 202.17 225.07
  Q 201.46 225.40 201.88 224.64
  L 205.71 217.69
  A 0.87 0.77 14.9 0 1 206.51 217.29
  Q 221.77 218.42 235.73 212.32
  C 236.60 211.94 237.72 210.88 236.38 210.15
  Q 235.37 209.61 233.51 209.44
  Q 220.55 208.29 208.51 213.04
  Q 207.67 213.37 208.15 212.41
  L 212.59 203.58
  A 1.08 0.70 9.0 0 1 213.51 203.17
  Q 227.78 203.69 241.19 198.62
  Q 244.10 197.52 241.03 196.56
  C 233.76 194.29 222.39 196.98 215.50 199.80
  Q 214.31 200.29 214.72 199.24
  L 218.91 188.43
  A 1.10 0.77 1.1 0 1 219.72 187.89
  Q 230.32 186.14 240.97 184.78
  Q 243.14 184.50 244.65 183.91
  Q 246.49 183.18 244.76 182.23
  C 238.57 178.82 227.08 181.66 221.18 184.71
  Q 220.14 185.24 220.46 184.20
  L 224.36 171.58
  A 0.61 0.44 12.2 0 1 225.02 171.29
  Q 235.01 173.02 244.92 171.01
  C 246.98 170.60 246.98 169.20 245.15 168.40
  Q 235.96 164.36 226.51 168.01
  Q 225.18 168.53 225.49 167.25
  L 227.72 158.24
  A 0.73 0.71 1.6 0 1 228.31 157.70
  C 228.78 157.62 256.05 151.50 247.39 148.79
  Q 237.41 145.67 229.97 152.75
  Q 228.64 154.02 228.97 152.25
  L 230.41 144.68
  Q 230.81 142.56 232.79 141.54
  Q 242.31 136.63 247.03 126.97
  Q 247.66 125.69 246.30 126.07
  C 240.65 127.69 235.93 133.57 232.15 137.86
  Q 231.81 138.24 231.77 137.73
  C 231.62 135.51 231.71 133.73 233.41 132.00
  C 237.09 128.25 241.22 124.90 243.01 119.75
  Q 243.43 118.56 242.25 119.00
  Q 235.88 121.41 232.71 127.46
  Q 232.24 128.36 231.74 127.67
  A 1.23 0.86 -63.2 0 1 231.61 126.76
  C 233.00 120.79 230.18 113.82 227.65 106.35
  C 227.38 105.56 226.32 104.22 225.74 105.74
  C 224.05 110.19 227.08 119.57 228.60 124.30
  C 228.91 125.26 228.60 125.60 228.01 124.84
  C 226.32 122.68 217.14 110.79 218.71 116.77
  Q 221.42 127.04 229.82 133.49
  A 1.19 0.24 36.0 0 1 230.53 134.27
  L 230.20 137.69
  Q 230.13 138.44 229.55 137.71
  Q 223.72 130.33 217.17 123.59
  C 215.95 122.33 212.81 120.30 213.81 124.73
  Q 216.62 137.16 228.77 142.33
  A 0.82 0.51 20.3 0 1 229.30 143.01
  L 227.28 153.00
  Q 227.18 153.53 226.88 152.94
  Q 221.25 141.93 211.65 134.10
  A 1.26 0.77 49.5 0 0 210.73 133.80
  Q 210.00 133.98 210.25 135.00
  C 212.41 143.78 216.93 152.69 225.08 157.30
  A 0.92 0.51 24.7 0 1 225.60 158.01
  L 224.40 165.99
  Q 224.26 166.97 223.68 166.09
  Q 217.59 156.89 209.58 149.36
  C 209.10 148.90 207.75 148.60 207.98 149.75
  C 209.52 157.39 214.61 166.59 221.95 170.04
  A 1.46 1.46 -69.3 0 1 222.73 171.77
  Q 220.94 177.96 219.13 184.43
  C 218.93 185.14 218.29 185.78 218.00 184.49
  C 216.11 176.35 210.33 169.63 203.52 162.73
  Q 202.81 162.01 202.11 162.42
  A 0.75 0.61 68.3 0 0 201.86 163.22
  C 204.06 170.85 209.58 184.50 217.04 188.29
  A 0.64 0.59 25.3 0 1 217.35 189.06
  L 212.75 199.85
  Q 212.54 200.34 212.30 199.86
  C 210.96 197.10 198.94 175.49 196.52 176.00
  A 1.41 1.40 78.2 0 0 195.44 177.66
  C 197.54 188.06 201.65 198.31 210.83 203.65
  A 0.47 0.45 28.4 0 1 211.02 204.25
  L 206.95 212.68
  Q 206.21 214.21 205.54 212.69
  C 202.49 205.76 193.55 197.74 187.64 193.36
  Q 184.53 191.06 185.77 194.73
  C 188.86 203.83 194.04 214.07 203.59 217.31
  A 0.60 0.45 22.6 0 1 204.00 218.01
  L 198.74 227.53
  Q 198.33 228.26 198.01 227.45
  L 195.52 221.27
  Q 195.32 220.77 194.92 220.43
  Q 192.96 218.78 191.96 216.50"
/>
<path stroke="#8e939a" vector-effect="non-scaling-stroke" d="
  M 191.96 216.50
  C 190.97 206.70 187.01 198.90 182.21 189.75"
/>
<path stroke="#868483" vector-effect="non-scaling-stroke" d="
  M 182.21 189.75
  Q 184.04 187.77 186.68 187.50
  A 1.03 0.93 -76.7 0 0 187.43 186.98
  Q 195.12 173.13 194.52 157.26
  A 1.01 0.81 -22.8 0 1 194.92 156.52
  Q 198.59 153.70 199.79 149.25"
/>
<path stroke="#918e8b" vector-effect="non-scaling-stroke" d="
  M 199.79 149.25
  Q 201.69 143.30 197.63 139.13
  A 1.86 1.76 -74.4 0 1 197.16 138.24
  Q 196.14 133.21 197.35 128.27
  A 1.91 1.63 -51.8 0 0 197.31 127.25
  Q 193.63 116.84 187.96 107.45"
/>
<path stroke="#868483" vector-effect="non-scaling-stroke" d="
  M 187.96 107.45
  Q 187.25 106.46 187.93 105.59
  A 0.61 0.57 31.9 0 1 188.67 105.44
  Q 198.23 110.24 209.01 109.98
  A 0.70 0.67 6.2 0 0 209.65 109.49
  Q 209.95 108.46 208.99 107.69
  Q 201.09 101.39 190.48 102.67
  Q 189.70 102.77 189.98 102.24
  L 194.46 93.70
  A 0.86 0.77 15.1 0 1 195.25 93.30
  Q 205.29 94.04 215.17 92.45
  Q 219.31 91.78 215.94 89.53
  Q 207.29 83.74 198.22 89.05
  Q 196.05 90.32 197.13 88.17
  L 201.48 79.52
  A 1.33 0.73 -2.2 0 1 202.36 78.99
  Q 212.86 76.78 220.31 69.08
  C 221.89 67.45 220.32 66.71 218.83 67.19
  Q 210.74 69.81 203.94 74.98
  Q 203.15 75.58 203.34 74.60
  C 203.91 71.74 205.22 70.32 207.96 68.91
  Q 214.37 65.61 219.01 60.01
  Q 220.12 58.67 218.24 59.00
  Q 211.83 60.13 207.25 64.77
  A 1.20 0.60 -52.3 0 1 206.38 65.19
  C 205.81 65.08 206.01 64.33 206.23 63.95
  C 209.33 58.60 207.80 48.65 207.23 42.62
  Q 206.99 40.12 205.70 42.27
  C 202.88 46.95 203.58 56.85 204.21 62.11
  C 204.25 62.42 204.21 62.53 203.88 62.54
  A 0.68 0.42 72.3 0 1 203.39 62.12
  Q 199.39 53.03 197.92 50.33
  C 197.13 48.88 196.18 49.43 196.19 50.81
  Q 196.34 61.63 202.91 70.14
  A 0.91 0.57 48.2 0 1 203.07 71.07
  L 201.55 73.06
  A 0.53 0.39 54.9 0 1 200.80 72.81
  C 199.45 69.90 187.92 43.84 189.75 61.73
  Q 190.76 71.59 199.58 78.28
  A 0.80 0.60 32.2 0 1 199.89 79.10
  L 195.87 88.17
  Q 195.33 89.38 195.02 88.04
  C 194.39 85.30 187.18 64.25 183.82 65.72
  A 0.88 0.69 81.7 0 0 183.39 66.47
  C 183.15 74.86 185.97 86.62 192.87 92.48
  A 0.83 0.43 37.7 0 1 193.23 93.25
  L 189.29 100.53
  Q 189.00 101.06 188.76 100.47
  Q 184.61 90.06 179.32 80.18
  Q 178.77 79.15 177.99 79.86
  A 1.32 0.97 76.3 0 0 177.63 80.73
  Q 177.02 94.69 186.76 104.44
  Q 186.93 104.61 186.94 104.77
  C 187.01 106.20 183.15 101.87 183.04 101.75"
/>
<path stroke="#918e8b" vector-effect="non-scaling-stroke" d="
  M 183.04 101.75
  L 175.94 96.98
  A 0.90 0.79 20.1 0 1 175.54 96.25
  Q 175.59 94.91 175.00 93.71"
/>
<path stroke="#868483" vector-effect="non-scaling-stroke" d="
  M 175.00 93.71
  L 172.84 89.67
  A 0.96 0.70 49.7 0 1 172.78 88.84
  C 195.43 46.76 159.67 0.01 112.77 14.81
  C 101.48 18.37 88.64 27.31 85.46 39.43
  C 81.78 53.50 81.88 71.51 91.05 83.66
  C 92.54 85.64 95.08 87.67 96.79 90.08
  A 0.69 0.66 -43.9 0 1 96.76 90.88
  C 93.13 95.62 88.93 101.67 93.90 106.44
  A 0.92 0.91 27.9 0 1 94.16 107.28
  C 89.58 129.04 90.16 154.84 100.30 175.13
  C 102.30 179.12 108.01 182.04 106.71 187.00"
/>
<path stroke="#19130f" vector-effect="non-scaling-stroke" d="
  M 175.00 93.71
  L 174.04 93.75"
/>
<path stroke="#6c594a" vector-effect="non-scaling-stroke" d="
  M 174.04 93.75
  Q 173.43 91.66 171.71 90.45
  A 0.66 0.62 -47.6 0 0 170.92 90.51
  Q 168.08 93.02 170.31 90.04
  C 180.54 76.35 180.84 56.86 174.76 41.49
  Q 171.91 34.30 163.69 26.03"
/>
<path stroke="#57463b" vector-effect="non-scaling-stroke" d="
  M 163.69 26.03
  Q 141.34 7.01 112.75 15.84
  C 97.96 20.41 85.35 31.98 84.83 48.31"
/>
<path stroke="#6c594a" vector-effect="non-scaling-stroke" d="
  M 84.83 48.31
  C 81.59 66.07 88.12 87.63 106.81 94.29
  Q 107.46 94.53 106.88 94.75
  C 105.99 95.08 99.68 91.73 98.43 91.09
  A 0.59 0.59 -59.3 0 0 97.69 91.28
  C 93.70 96.83 88.20 103.27 98.79 106.75"
/>
<path stroke="#19130f" vector-effect="non-scaling-stroke" d="
  M 98.79 106.75
  L 98.00 107.29"
/>
<path stroke="#817e7d" vector-effect="non-scaling-stroke" d="
  M 98.00 107.29
  Q 95.56 106.73 95.01 109.01
  C 92.23 120.44 92.69 133.08 93.27 144.76
  Q 94.07 160.67 102.91 177.40
  A 0.99 0.58 70.2 0 0 103.57 177.95
  Q 112.88 178.18 121.79 175.51
  A 1.20 1.15 82.7 0 0 122.61 174.40
  C 122.70 170.12 122.25 166.99 118.72 164.27
  Q 114.89 161.31 112.30 157.11
  A 1.07 1.03 76.8 0 0 111.54 156.62
  Q 100.27 155.27 99.26 143.72
  Q 99.09 141.69 100.75 139.46"
/>
<path stroke="#19130f" vector-effect="non-scaling-stroke" d="
  M 100.75 139.46
  L 101.54 139.75"
/>
<path stroke="#847e77" vector-effect="non-scaling-stroke" d="
  M 101.54 139.75
  C 98.31 146.47 102.76 155.09 110.58 155.32
  A 0.43 0.39 86.8 0 0 110.98 154.83
  L 109.29 142.75"
/>
<path stroke="#19130f" vector-effect="non-scaling-stroke" d="
  M 109.29 142.75
  L 110.46 142.25"
/>
<path stroke="#826860" vector-effect="non-scaling-stroke" d="
  M 110.46 142.25
  L 110.71 145.28"
/>
<path stroke="#847e77" vector-effect="non-scaling-stroke" d="
  M 110.71 145.28
  Q 111.32 161.54 125.92 167.36
  C 145.64 175.22 185.49 177.29 187.54 146.68"
/>
<path stroke="#19130f" vector-effect="non-scaling-stroke" d="
  M 187.54 146.68
  Q 187.76 145.22 188.96 146.00"
/>
<path stroke="#847e77" vector-effect="non-scaling-stroke" d="
  M 188.96 146.00
  Q 188.16 152.69 185.49 158.35
  Q 184.99 159.41 186.14 159.20
  Q 195.98 157.38 199.04 148.00"
/>
<path stroke="#19130f" vector-effect="non-scaling-stroke" d="
  M 199.04 148.00
  Q 200.01 148.14 199.79 149.25"
/>
<path stroke="#16181f" vector-effect="non-scaling-stroke" d="
  M 182.21 189.75
  Q 180.55 190.40 179.50 189.21"
/>
<path stroke="#83706a" vector-effect="non-scaling-stroke" d="
  M 179.50 189.21
  Q 174.93 181.56 167.50 187.04"
/>
<path stroke="#16181f" vector-effect="non-scaling-stroke" d="
  M 167.50 187.04
  Q 166.74 186.39 167.39 185.84
  A 0.98 0.78 -27.1 0 0 167.74 185.07
  L 167.49 182.58"
/>
<path stroke="#817e7d" vector-effect="non-scaling-stroke" d="
  M 167.49 182.58
  Q 169.24 179.86 169.21 176.48
  A 2.18 1.71 -36.1 0 1 169.49 175.49
  L 171.94 171.19
  Q 172.62 170.00 171.26 170.28
  L 157.52 173.09
  A 0.69 0.59 -3.8 0 0 156.98 173.62
  Q 156.82 174.99 157.25 176.46"
/>
<path stroke="#16181f" vector-effect="non-scaling-stroke" d="
  M 157.25 176.46
  Q 156.57 176.98 156.27 177.65"
/>
<path stroke="#847e77" vector-effect="non-scaling-stroke" d="
  M 156.27 177.65
  L 155.52 173.83
  A 0.84 0.63 -3.0 0 0 154.75 173.31
  L 141.75 172.96
  A 0.77 0.65 9.2 0 0 141.02 173.40
  Q 140.88 173.81 140.96 174.25"
/>
<path stroke="#16181f" vector-effect="non-scaling-stroke" d="
  M 140.96 174.25
  L 139.50 173.71"
/>
<path stroke="#817e7d" vector-effect="non-scaling-stroke" d="
  M 139.50 173.71
  Q 139.81 173.44 139.75 173.11
  A 1.04 0.64 5.2 0 0 138.94 172.51
  Q 131.19 171.04 124.02 167.69
  Q 122.64 167.04 122.97 168.54
  Q 124.00 173.26 122.92 178.23
  Q 122.84 178.62 123.21 179.50"
/>
<path stroke="#16181f" vector-effect="non-scaling-stroke" d="
  M 123.21 179.50
  L 121.75 180.46"
/>
<path stroke="#817973" vector-effect="non-scaling-stroke" d="
  M 121.75 180.46
  L 122.09 178.06
  A 1.27 1.06 -5.1 0 0 120.49 176.95
  Q 113.72 178.68 106.76 179.06
  A 0.64 0.55 -87.2 0 0 106.24 179.61
  Q 105.95 181.65 107.66 183.06
  A 0.64 0.60 -44.0 0 0 108.45 183.05
  Q 111.15 180.90 114.50 180.04"
/>
<path stroke="#16181f" vector-effect="non-scaling-stroke" d="
  M 114.50 180.04
  L 114.25 180.96"
/>
<path stroke="#7b6961" vector-effect="non-scaling-stroke" d="
  M 114.25 180.96
  C 112.54 181.40 103.88 187.14 109.79 187.25"
/>
<path stroke="#16181f" vector-effect="non-scaling-stroke" d="
  M 109.79 187.25
  Q 107.93 189.56 106.71 187.00"
/>
<path stroke="#b5967e" vector-effect="non-scaling-stroke" d="
  M 163.69 26.03
  C 158.78 30.83 154.81 31.80 147.70 31.84
  Q 144.04 31.87 140.40 32.70"
/>
<path stroke="#5b493c" vector-effect="non-scaling-stroke" d="
  M 140.40 32.70
  Q 133.52 30.57 126.31 30.98"
/>
<path stroke="#b5967e" vector-effect="non-scaling-stroke" d="
  M 126.31 30.98
  Q 120.87 29.63 113.49 31.22
  C 103.28 33.42 96.92 37.15 90.34 44.49
  Q 88.06 47.04 84.83 48.31"
/>
<path stroke="#8f887f" vector-effect="non-scaling-stroke" d="
  M 199.04 148.00
  C 200.24 136.47 187.65 137.75 188.96 146.00"
/>
<path stroke="#8f887f" vector-effect="non-scaling-stroke" d="
  M 187.54 146.68
  Q 186.93 148.18 185.79 148.59
  A 0.43 0.42 -12.9 0 1 185.23 148.25
  L 184.76 144.25
  A 1.84 1.33 -75.5 0 0 184.41 143.36
  C 182.25 140.76 182.76 137.94 180.71 135.25"
/>
<path stroke="#8d7268" vector-effect="non-scaling-stroke" d="
  M 180.71 135.25
  Q 178.62 131.51 174.67 129.67
  Q 173.84 129.29 173.99 130.01
  Q 174.13 130.69 173.83 131.33
  A 0.46 0.40 38.1 0 1 173.12 131.37
  Q 169.65 127.61 167.99 122.74
  Q 167.38 120.98 166.70 122.69
  C 165.16 126.55 162.95 133.80 158.96 135.73
  Q 158.14 136.12 158.57 135.32
  Q 159.92 132.80 160.54 130.01
  Q 160.96 128.15 159.58 129.56
  Q 154.25 135.03 146.74 136.39
  C 145.34 136.64 146.20 135.45 146.53 135.26
  Q 152.56 131.62 153.25 124.49
  Q 153.33 123.58 152.68 124.23
  C 150.10 126.80 147.50 129.70 144.29 131.32
  Q 135.56 135.72 125.54 135.67
  Q 123.84 135.66 125.16 134.64
  L 128.25 132.26
  Q 130.16 130.78 127.76 131.30
  Q 120.13 132.96 115.99 139.47
  C 115.00 141.02 113.36 141.43 113.93 138.53
  Q 114.06 137.84 113.45 138.22
  L 110.54 140.03
  A 0.92 0.76 70.5 0 0 110.21 140.93
  L 110.46 142.25"
/>
<path stroke="#8f887f" vector-effect="non-scaling-stroke" d="
  M 109.29 142.75
  L 108.86 139.24
  A 1.07 0.91 13.1 0 0 108.31 138.50
  Q 104.43 136.43 101.54 139.75"
/>
<path stroke="#8c8885" vector-effect="non-scaling-stroke" d="
  M 100.75 139.46
  Q 101.13 138.31 102.11 137.51
  A 1.05 0.87 -23.3 0 0 102.51 136.72
  C 102.29 131.68 101.51 125.69 102.61 119.74
  C 103.31 115.91 101.80 113.00 105.83 110.07
  C 106.42 109.64 106.95 108.20 105.77 108.22
  Q 100.95 108.27 98.00 107.29"
/>
<path stroke="#898d94" vector-effect="non-scaling-stroke" d="
  M 139.50 173.71
  C 136.73 175.24 134.84 177.60 131.86 178.36
  Q 127.62 179.44 123.21 179.50"
/>
<path stroke="#8b7f81" vector-effect="non-scaling-stroke" d="
  M 167.50 187.04
  Q 165.86 188.87 165.23 191.26
  A 0.57 0.55 -87.5 0 0 165.86 191.97
  L 179.50 189.21"
/>
<path stroke="#6d6e66" vector-effect="non-scaling-stroke" d="
  M 96.96 220.27
  Q 95.86 216.96 96.14 213.56
  Q 96.19 212.95 95.73 213.27
  L 92.50 215.54"
/>
<path stroke="#6c6362" vector-effect="non-scaling-stroke" d="
  M 92.25 215.46
  Q 98.07 209.43 98.55 200.96
  A 0.48 0.33 -80.8 0 0 98.34 200.52
  Q 98.21 200.47 98.04 200.50"
/>
<path stroke="#837878" vector-effect="non-scaling-stroke" d="
  M 109.79 187.25
  L 111.75 187.21"
/>
<path stroke="#8c8d8f" vector-effect="non-scaling-stroke" d="
  M 111.75 187.21
  L 122.07 189.16
  A 0.82 0.75 11.0 0 0 123.00 188.59
  Q 123.79 184.64 121.50 182.71"
/>
<path stroke="#837878" vector-effect="non-scaling-stroke" d="
  M 121.50 182.71
  Q 118.45 179.88 114.25 180.96"
/>
<path stroke="#89888a" vector-effect="non-scaling-stroke" d="
  M 114.50 180.04
  C 116.00 179.74 121.42 180.76 121.75 180.46"
/>
<path stroke="#f8ddd0" vector-effect="non-scaling-stroke" d="
  M 180.71 135.25
  L 173.65 138.89"
/>
<path stroke="#917366" vector-effect="non-scaling-stroke" d="
  M 173.65 138.89
  Q 167.56 135.47 164.00 140.96"
/>
<path stroke="#f8ddd0" vector-effect="non-scaling-stroke" d="
  M 164.00 140.96
  Q 154.52 141.22 145.19 139.52
  Q 139.20 138.43 133.36 139.90"
/>
<path stroke="#876b61" vector-effect="non-scaling-stroke" d="
  M 133.36 139.90
  Q 128.59 138.77 124.49 141.35"
/>
<path stroke="#f8ddd0" vector-effect="non-scaling-stroke" d="
  M 124.49 141.35
  Q 117.18 141.90 110.71 145.28"
/>
<path stroke="#898078" vector-effect="non-scaling-stroke" d="
  M 124.49 141.35
  Q 123.83 142.38 124.26 142.76
  A 0.74 0.50 -42.7 0 0 125.10 142.63
  Q 129.28 139.12 133.91 142.13
  Q 134.51 142.52 134.50 141.83
  Q 134.48 140.92 133.36 139.90"
/>
<path stroke="#93897e" vector-effect="non-scaling-stroke" d="
  M 164.00 140.96
  C 167.57 139.45 169.98 137.61 173.65 140.53
  A 0.61 0.48 39.3 0 0 174.42 140.55
  Q 174.96 139.92 173.65 138.89"
/>
<path stroke="#776352" vector-effect="non-scaling-stroke" d="
  M 174.04 93.75
  Q 175.48 97.99 171.24 96.74
  C 150.70 90.72 130.31 90.24 112.47 103.83
  C 107.91 107.30 104.17 108.14 98.79 106.75"
/>
<path stroke="#715b4b" vector-effect="non-scaling-stroke" d="
  M 126.31 30.98
  C 111.27 35.57 98.50 46.70 90.23 59.81
  A 1.27 1.24 -35.2 0 0 90.06 60.73
  Q 90.97 65.49 92.00 70.22
  C 95.77 87.60 120.67 92.46 135.33 91.86
  C 153.75 91.11 168.23 85.42 170.35 64.75
  A 1.06 0.65 87.1 0 1 170.79 63.94
  C 171.16 63.76 173.37 65.27 172.33 63.59
  C 164.32 50.65 154.12 39.56 140.40 32.70"
/>
<path stroke="#8c8d8f" vector-effect="non-scaling-stroke" d="
  M 156.27 177.65
  Q 154.30 182.80 148.97 184.38
  A 1.36 0.77 -26.6 0 1 147.96 184.33
  L 140.56 179.44
  A 1.00 0.70 -72.8 0 1 140.27 178.54
  L 140.96 174.25"
/>
<path stroke="#898d94" vector-effect="non-scaling-stroke" d="
  M 167.49 182.58
  C 165.45 181.60 164.15 181.12 162.41 179.46
  Q 160.23 177.37 157.25 176.46"
/>
<path stroke="#f1ded1" vector-effect="non-scaling-stroke" d="
  M 121.50 182.71
  C 118.16 184.84 113.77 181.81 111.75 187.21"
/>
<path stroke="#19130f" vector-effect="non-scaling-stroke" d="
  M 187.96 107.45
  Q 182.52 105.31 179.35 100.71
  Q 179.03 100.24 179.54 100.47
  Q 180.63 100.97 181.37 101.96
  A 1.39 0.74 64.5 0 0 182.13 102.52
  Q 182.91 102.64 183.04 101.75"
/>
<path stroke="#252325" vector-effect="non-scaling-stroke" d="
  M 186.48 229.96
  Q 187.89 227.44 188.83 224.79
  C 189.84 221.93 187.87 217.51 191.96 216.50"
/>
<path stroke="#1b1b20" vector-effect="non-scaling-stroke" d="
  M 97.50 199.46
  L 98.04 200.50"
/>
<path stroke="#69574c" vector-effect="non-scaling-stroke" d="
  M 98.04 200.50
  C 93.24 204.98 88.44 209.04 85.32 215.15
  Q 83.38 218.93 87.55 218.09
  Q 89.15 217.77 92.25 215.46"
/>
<path stroke="#1b1b20" vector-effect="non-scaling-stroke" d="
  M 92.25 215.46
  L 92.50 215.54"
/>
<path stroke="#696250" vector-effect="non-scaling-stroke" d="
  M 92.50 215.54
  L 88.69 218.51
  Q 88.32 218.79 87.83 218.86
  Q 86.55 219.04 85.48 219.71
  A 0.71 0.44 60.5 0 0 85.45 220.53
  L 90.54 229.72
  Q 91.43 231.34 92.05 229.53
  Q 93.76 224.53 96.96 220.27"
/>
<path stroke="#1b1b20" vector-effect="non-scaling-stroke" d="
  M 96.96 220.27
  Q 99.18 223.30 100.05 227.11"
/>
<path stroke="#675449" vector-effect="non-scaling-stroke" d="
  M 91.22 232.34
  Q 79.89 222.01 64.16 225.18
  Q 62.08 225.60 64.02 226.76
  L 68.95 229.71"
/>
<path stroke="#f9f8f8" vector-effect="non-scaling-stroke" d="
  M 187.77 44.28
  Q 188.81 44.49 189.48 43.72
  C 192.88 39.80 197.36 34.61 197.23 29.32
  A 1.00 0.82 -78.2 0 0 196.81 28.52
  C 194.98 27.41 193.29 29.79 192.25 31.00
  Q 191.41 31.97 191.13 30.85
  C 190.57 28.62 189.51 24.83 186.53 25.17
  A 1.12 0.98 -74.2 0 0 185.76 25.67
  C 182.54 30.69 184.39 38.48 186.65 43.40
  A 1.59 1.59 -15.3 0 0 187.77 44.28"
/>
<path stroke="#f9f8f8" vector-effect="non-scaling-stroke" d="
  M 73.52 82.93
  C 71.52 81.66 69.48 79.24 67.43 78.66
  C 63.93 77.67 64.49 81.68 65.81 83.41
  Q 72.42 92.15 81.54 98.29
  A 1.34 0.95 49.0 0 0 82.46 98.51
  C 84.43 98.08 81.95 87.47 81.82 85.39
  C 81.58 81.55 80.08 69.89 75.40 70.30
  A 1.22 1.19 -73.0 0 0 74.58 70.75
  C 71.65 74.37 73.74 79.02 73.92 82.69
  Q 73.95 83.20 73.52 82.93"
/>
<path stroke="#f9f8f8" vector-effect="non-scaling-stroke" d="
  M 206.98 118.24
  L 206.25 115.75
  A 1.09 0.71 9.8 0 0 205.64 115.18
  C 201.80 113.70 201.31 123.68 201.69 125.95
  C 203.00 133.78 211.93 122.14 211.22 119.45
  Q 210.66 117.33 207.53 118.50
  A 0.42 0.41 -19.1 0 1 206.98 118.24"
/>
<path stroke="#817e7d" vector-effect="non-scaling-stroke" d="
  M 170.11 177.36
  L 185.49 186.32
  A 1.16 1.02 28.9 0 0 187.04 185.98
  Q 193.71 173.09 193.40 158.50
  A 0.43 0.32 -11.2 0 0 192.86 158.24
  L 184.57 160.68
  A 1.74 1.06 -1.5 0 0 183.72 161.23
  Q 180.07 166.53 174.22 169.21
  A 1.59 1.55 0.8 0 0 173.45 169.94
  L 170.00 177.00
  A 0.29 0.27 29.7 0 0 170.11 177.36"
/>
<path stroke="#817973" vector-effect="non-scaling-stroke" d="
  M 183.92 186.58
  Q 177.57 182.06 170.49 178.77
  A 0.46 0.45 18.7 0 0 169.85 179.08
  L 168.98 182.98
  A 1.07 1.04 0.2 0 0 170.25 184.22
  Q 176.94 182.82 180.36 188.35
  A 0.82 0.52 57.5 0 0 181.26 188.77
  L 183.95 186.96
  A 0.25 0.22 43.8 0 0 183.92 186.58"
/>
<path stroke="#b5967e" vector-effect="non-scaling-stroke" d="
  M 99.64 101.26
  C 101.43 104.63 110.89 102.68 113.75 101.67
  A 0.83 0.62 -13.8 0 0 114.30 101.00
  L 114.25 99.82
  A 0.67 0.54 80.9 0 1 114.62 99.17
  Q 122.70 96.60 113.22 97.09
  Q 112.36 97.13 111.11 97.35
  Q 105.71 98.31 98.24 97.73
  Q 96.37 97.59 97.06 99.29
  A 1.45 1.27 87.7 0 0 97.75 100.02
  L 98.94 100.56
  A 1.67 1.20 80.8 0 1 99.64 101.26"
/>
<path stroke="#65574d" vector-effect="non-scaling-stroke" d="
  M 144.06 35.77
  C 134.60 29.44 122.13 31.31 113.32 37.78
  Q 112.34 38.50 113.55 38.38
  Q 120.19 37.71 126.81 36.94
  C 132.54 36.27 137.93 36.79 143.64 37.06
  Q 146.18 37.19 144.06 35.77"
/>
<path stroke="#898078" vector-effect="non-scaling-stroke" d="
  M 104.28 45.27
  Q 98.55 50.35 93.74 56.75
  C 91.20 60.13 91.54 62.38 92.18 66.32
  C 96.53 92.80 133.57 93.14 151.90 87.60
  C 162.93 84.26 169.01 74.62 169.19 63.18
  Q 169.22 61.49 168.29 60.07
  Q 162.22 50.82 155.31 44.64"
/>
<path stroke="#876b61" vector-effect="non-scaling-stroke" d="
  M 155.31 44.64
  C 152.86 41.46 150.28 38.93 146.10 38.22
  Q 137.62 36.76 128.99 37.41
  C 118.64 38.18 109.59 38.03 104.28 45.27"
/>
<path stroke="#f8ddd0" vector-effect="non-scaling-stroke" d="
  M 155.31 44.64
  Q 144.59 45.72 133.94 44.81
  Q 124.02 43.97 120.53 44.05
  Q 112.38 44.22 104.28 45.27"
/>
<path stroke="#655f4f" vector-effect="non-scaling-stroke" d="
  M 205.9232 61.8300
  A 7.57 0.96 89.9 0 0 206.8700 54.2583
  A 7.57 0.96 89.9 0 0 205.8968 46.6900
  A 7.57 0.96 89.9 0 0 204.9500 54.2617
  A 7.57 0.96 89.9 0 0 205.9232 61.8300"
/>
<path stroke="#61544c" vector-effect="non-scaling-stroke" d="
  M 204.31 68.47
  C 204.31 64.40 200.17 57.00 198.22 53.30
  Q 197.59 52.11 197.63 53.48
  Q 197.83 62.13 203.05 68.89
  Q 204.31 70.52 204.31 68.47"
/>
<path stroke="#61544c" vector-effect="non-scaling-stroke" d="
  M 198.22 75.82
  Q 202.15 79.44 200.24 74.54
  Q 196.75 65.56 191.63 57.40
  Q 190.94 56.30 190.84 57.59
  Q 190.00 68.26 198.22 75.82"
/>
<path stroke="#62564f" vector-effect="non-scaling-stroke" d="
  M 215.5826 61.2510
  A 5.32 1.28 -35.1 0 0 210.4940 63.2628
  A 5.32 1.28 -35.1 0 0 206.8774 67.3690
  A 5.32 1.28 -35.1 0 0 211.9660 65.3572
  A 5.32 1.28 -35.1 0 0 215.5826 61.2510"
/>
<path stroke="#625248" vector-effect="non-scaling-stroke" d="
  M 193.27 91.10
  A 0.53 0.53 13.2 0 0 194.02 90.64
  Q 194.17 86.31 192.58 82.18
  C 191.93 80.47 186.40 68.09 184.92 68.29
  A 0.69 0.53 85.7 0 0 184.47 68.98
  C 184.63 74.65 187.37 88.44 193.27 91.10"
/>
<path stroke="#62564f" vector-effect="non-scaling-stroke" d="
  M 217.7993 69.2980
  A 7.94 1.46 -30.1 0 0 210.1978 72.0169
  A 7.94 1.46 -30.1 0 0 204.0607 77.2620
  A 7.94 1.46 -30.1 0 0 211.6622 74.5431
  A 7.94 1.46 -30.1 0 0 217.7993 69.2980"
/>
<path stroke="#61544c" vector-effect="non-scaling-stroke" d="
  M 185.94 102.06
  Q 189.08 105.39 187.81 101.24
  Q 184.96 91.92 179.81 83.70
  Q 179.10 82.57 179.04 83.88
  Q 178.57 94.27 185.94 102.06"
/>
<path stroke="#625248" vector-effect="non-scaling-stroke" d="
  M 214.66 90.09
  C 209.05 86.30 201.49 86.98 196.56 90.70
  Q 194.61 92.16 197.04 92.36
  Q 201.80 92.73 206.19 92.22
  C 208.69 91.93 211.98 92.34 214.48 91.48
  Q 215.96 90.97 214.66 90.09"
/>
<path stroke="#625248" vector-effect="non-scaling-stroke" d="
  M 207.81 108.29
  C 202.59 104.60 195.80 101.87 189.56 104.06
  Q 188.56 104.41 189.49 104.86
  Q 198.01 108.94 207.51 109.03
  Q 208.88 109.05 207.81 108.29"
/>
<path stroke="#847e77" vector-effect="non-scaling-stroke" d="
  M 155.36 56.53
  C 154.48 52.55 147.14 54.43 145.17 56.46
  A 0.63 0.43 -37.1 0 0 144.98 57.02
  C 145.10 57.35 145.48 57.30 145.76 57.16
  C 149.01 55.61 151.36 53.87 154.58 56.97
  Q 155.69 58.03 155.36 56.53"
/>
<path stroke="#898078" vector-effect="non-scaling-stroke" d="
  M 115.31 58.30
  C 114.17 54.10 107.31 56.29 105.38 58.52
  A 0.55 0.42 -37.4 0 0 105.25 59.00
  L 105.31 59.19
  A 0.59 0.36 -34.3 0 0 106.11 59.15
  Q 110.30 55.62 114.91 58.60
  Q 115.50 58.99 115.31 58.30"
/>
<path stroke="#898078" vector-effect="non-scaling-stroke" d="
  M 150.9925 67.5374
  A 3.89 3.21 87.9 0 0 154.0578 63.5324
  A 3.89 3.21 87.9 0 0 150.7075 59.7626
  A 3.89 3.21 87.9 0 0 147.6422 63.7676
  A 3.89 3.21 87.9 0 0 150.9925 67.5374"
/>
<path stroke="#898078" vector-effect="non-scaling-stroke" d="
  M 110.5240 68.0086
  A 4.05 3.27 91.5 0 0 113.8989 64.0456
  A 4.05 3.27 91.5 0 0 110.7360 59.9114
  A 4.05 3.27 91.5 0 0 107.3611 63.8744
  A 4.05 3.27 91.5 0 0 110.5240 68.0086"
/>
<path stroke="#f8ddd0" vector-effect="non-scaling-stroke" d="
  M 117.6100 75.8437
  A 6.79 5.24 0.2 0 0 110.8383 70.5800
  A 6.79 5.24 0.2 0 0 104.0300 75.7963
  A 6.79 5.24 0.2 0 0 110.8017 81.0600
  A 6.79 5.24 0.2 0 0 117.6100 75.8437"
/>
<path stroke="#f8ddd0" vector-effect="non-scaling-stroke" d="
  M 159.2395 76.2569
  A 6.80 5.29 -0.7 0 0 152.3754 71.0504
  A 6.80 5.29 -0.7 0 0 145.6405 76.4231
  A 6.80 5.29 -0.7 0 0 152.5046 81.6296
  A 6.80 5.29 -0.7 0 0 159.2395 76.2569"
/>
<path stroke="#847e77" vector-effect="non-scaling-stroke" d="
  M 126.56 73.29
  C 127.28 77.79 133.59 77.91 135.98 74.43
  Q 137.13 72.76 135.01 72.76
  L 127.00 72.75
  A 0.47 0.45 85.6 0 0 126.56 73.29"
/>
<path stroke="#868483" vector-effect="non-scaling-stroke" d="
  M 133.93 73.79
  L 128.75 73.75
  Q 127.94 73.74 128.41 74.32
  Q 130.98 77.42 134.20 74.97
  Q 135.73 73.81 133.93 73.79"
/>
<path stroke="#6f5f53" vector-effect="non-scaling-stroke" d="
  M 221.65 119.34
  Q 220.53 118.24 221.03 119.77
  Q 223.39 126.97 229.23 131.77
  Q 230.70 132.99 230.99 131.51
  A 1.56 1.21 -61.4 0 0 230.82 130.45
  Q 226.82 124.44 221.65 119.34"
/>
<path stroke="#6f5f53" vector-effect="non-scaling-stroke" d="
  M 233.1458 129.8101
  A 5.40 1.21 130.6 0 0 237.5787 126.4974
  A 5.40 1.21 130.6 0 0 240.1742 121.6099
  A 5.40 1.21 130.6 0 0 235.7413 124.9226
  A 5.40 1.21 130.6 0 0 233.1458 129.8101"
/>
<path stroke="#735f51" vector-effect="non-scaling-stroke" d="
  M 216.41 124.85
  Q 214.65 123.32 215.26 125.48
  Q 218.34 136.34 228.55 140.95
  Q 230.63 141.89 229.47 140.04
  Q 224.07 131.46 216.41 124.85"
/>
<path stroke="#706156" vector-effect="non-scaling-stroke" d="
  M 233.62 137.89
  Q 231.67 140.38 234.62 139.11
  Q 240.66 136.50 244.29 129.27
  Q 244.63 128.58 243.96 128.97
  Q 237.91 132.40 233.62 137.89"
/>
<path stroke="#756054" vector-effect="non-scaling-stroke" d="
  M 213.33 136.80
  Q 212.08 135.61 212.01 137.33
  C 211.75 143.35 220.45 152.69 225.08 155.94
  Q 226.08 156.64 226.03 155.42
  C 225.80 149.45 218.15 141.36 213.33 136.80"
/>
<path stroke="#735f51" vector-effect="non-scaling-stroke" d="
  M 246.33 149.95
  Q 240.45 147.55 234.87 150.60
  C 233.37 151.41 227.62 155.15 228.27 156.52
  A 0.71 0.58 -17.6 0 0 229.02 156.82
  Q 237.99 154.74 246.33 150.85
  Q 247.36 150.37 246.33 149.95"
/>
<path stroke="#715d4f" vector-effect="non-scaling-stroke" d="
  M 210.68 152.34
  Q 209.92 151.62 210.18 152.63
  C 211.37 157.28 216.77 167.88 222.40 168.81
  A 0.40 0.38 0.7 0 0 222.86 168.38
  C 222.30 163.73 214.32 155.81 210.68 152.34"
/>
<path stroke="#756054" vector-effect="non-scaling-stroke" d="
  M 215.40 185.79
  Q 217.63 187.50 217.03 184.76
  C 215.41 177.27 210.08 171.61 205.07 166.16
  Q 203.52 164.48 204.20 166.66
  C 206.21 173.05 210.09 181.69 215.40 185.79"
/>
<path stroke="#715d4f" vector-effect="non-scaling-stroke" d="
  M 243.60 168.81
  Q 235.02 165.59 226.50 169.01
  A 0.92 0.79 -8.3 0 0 225.96 169.63
  C 225.46 172.41 241.83 170.53 243.48 170.17
  Q 245.83 169.65 243.60 168.81"
/>
<path stroke="#756054" vector-effect="non-scaling-stroke" d="
  M 198.45 179.31
  Q 196.36 176.75 197.03 179.99
  C 198.73 188.34 202.77 197.33 210.24 202.01
  Q 212.33 203.33 211.49 201.29
  Q 206.58 189.33 198.45 179.31"
/>
<path stroke="#706156" vector-effect="non-scaling-stroke" d="
  M 239.83 181.98
  Q 230.42 181.13 222.21 185.65
  Q 221.75 185.91 222.26 185.88
  Q 231.20 185.50 239.91 183.79
  C 241.28 183.52 243.35 182.30 239.83 181.98"
/>
<path stroke="#735f51" vector-effect="non-scaling-stroke" d="
  M 205.10 214.41
  C 201.81 207.93 194.13 198.24 187.61 194.87
  Q 187.15 194.64 187.30 195.13
  C 189.61 203.20 195.10 213.89 204.00 216.03
  Q 206.19 216.56 205.10 214.41"
/>
<path stroke="#756054" vector-effect="non-scaling-stroke" d="
  M 238.7073 197.5122
  A 11.87 1.88 -9.2 0 0 226.6894 197.5542
  A 11.87 1.88 -9.2 0 0 215.2727 201.3078
  A 11.87 1.88 -9.2 0 0 227.2906 201.2658
  A 11.87 1.88 -9.2 0 0 238.7073 197.5122"
/>
<path stroke="#756054" vector-effect="non-scaling-stroke" d="
  M 234.78 210.63
  Q 220.63 208.71 207.72 214.61
  A 1.28 1.23 87.2 0 0 207.04 215.39
  C 205.89 219.00 231.52 214.10 235.04 211.52
  Q 236.04 210.80 234.78 210.63"
/>
<path stroke="#706156" vector-effect="non-scaling-stroke" d="
  M 195.15 228.62
  Q 197.77 231.15 196.91 227.57
  Q 195.82 223.01 192.64 219.60
  A 0.44 0.44 38.5 0 0 191.93 219.68
  Q 190.79 221.70 191.01 224.00
  A 1.47 0.56 -88.5 0 0 191.33 224.92
  L 195.15 228.62"
/>
<path stroke="#735f51" vector-effect="non-scaling-stroke" d="
  M 226.00 222.98
  C 216.91 221.21 206.52 222.35 199.70 228.98
  Q 198.70 229.96 200.02 230.03
  Q 214.07 230.74 226.21 223.63
  Q 226.99 223.17 226.00 222.98"
/>
<path stroke="#665850" vector-effect="non-scaling-stroke" d="
  M 59.1808 127.2542
  A 7.45 1.30 103.5 0 0 62.1841 120.3135
  A 7.45 1.30 103.5 0 0 62.6592 112.7658
  A 7.45 1.30 103.5 0 0 59.6559 119.7065
  A 7.45 1.30 103.5 0 0 59.1808 127.2542"
/>
<path stroke="#65574d" vector-effect="non-scaling-stroke" d="
  M 58.9840 134.7801
  A 8.20 1.42 126.4 0 0 64.9929 129.0227
  A 8.20 1.42 126.4 0 0 68.7160 121.5799
  A 8.20 1.42 126.4 0 0 62.7071 127.3373
  A 8.20 1.42 126.4 0 0 58.9840 134.7801"
/>
<path stroke="#665850" vector-effect="non-scaling-stroke" d="
  M 56.7624 132.5015
  A 5.67 1.15 49.5 0 0 53.9545 127.4431
  A 5.67 1.15 49.5 0 0 49.3976 123.8785
  A 5.67 1.15 49.5 0 0 52.2055 128.9369
  A 5.67 1.15 49.5 0 0 56.7624 132.5015"
/>
<path stroke="#69574c" vector-effect="non-scaling-stroke" d="
  M 73.24 126.95
  C 68.70 131.37 62.76 137.35 60.01 142.76
  Q 59.35 144.05 60.52 143.58
  Q 71.49 139.20 74.46 127.72
  Q 75.14 125.10 73.24 126.95"
/>
<path stroke="#665850" vector-effect="non-scaling-stroke" d="
  M 56.5956 142.3066
  A 7.90 1.39 44.8 0 0 51.9694 135.7537
  A 7.90 1.39 44.8 0 0 45.3844 131.1734
  A 7.90 1.39 44.8 0 0 50.0106 137.7263
  A 7.90 1.39 44.8 0 0 56.5956 142.3066"
/>
<path stroke="#69574c" vector-effect="non-scaling-stroke" d="
  M 63.62 157.75
  Q 63.30 159.28 64.68 158.55
  C 70.73 155.31 75.66 146.25 77.74 139.98
  Q 78.22 138.54 76.80 139.07
  C 72.50 140.66 64.56 153.26 63.62 157.75"
/>
<path stroke="#675449" vector-effect="non-scaling-stroke" d="
  M 60.85 158.01
  C 57.51 153.78 48.36 148.48 43.09 152.25
  Q 41.89 153.11 43.30 153.74
  Q 51.44 157.40 60.25 159.00
  Q 61.88 159.30 60.85 158.01"
/>
<path stroke="#65574d" vector-effect="non-scaling-stroke" d="
  M 77.79 155.70
  C 73.65 160.14 68.21 165.64 66.61 170.36
  Q 65.85 172.61 68.02 171.22
  Q 76.30 165.92 79.12 156.31
  Q 79.99 153.34 77.79 155.70"
/>
<path stroke="#69574c" vector-effect="non-scaling-stroke" d="
  M 84.35 169.04
  C 79.10 174.13 72.95 181.28 72.76 188.69
  Q 72.74 189.44 73.34 188.99
  C 79.16 184.63 83.37 176.03 85.33 169.64
  Q 86.01 167.44 84.35 169.04"
/>
<path stroke="#675449" vector-effect="non-scaling-stroke" d="
  M 63.7873 172.0801
  A 9.01 1.86 1.4 0 0 54.8254 170.0006
  A 9.01 1.86 1.4 0 0 45.7727 171.6399
  A 9.01 1.86 1.4 0 0 54.7346 173.7194
  A 9.01 1.86 1.4 0 0 63.7873 172.0801"
/>
<path stroke="#69574c" vector-effect="non-scaling-stroke" d="
  M 91.54 181.50
  Q 84.50 190.31 79.58 199.83
  Q 75.75 207.24 81.57 203.19
  C 87.19 199.28 91.81 188.02 92.77 182.05
  Q 93.20 179.42 91.54 181.50"
/>
<path stroke="#65574d" vector-effect="non-scaling-stroke" d="
  M 67.61 188.14
  Q 58.57 182.99 48.30 184.72
  A 0.96 0.66 -4.0 0 0 47.53 185.33
  C 47.30 186.75 65.72 188.69 67.37 188.84
  Q 69.10 188.99 67.61 188.14"
/>
<path stroke="#675449" vector-effect="non-scaling-stroke" d="
  M 74.57 203.69
  C 70.49 201.68 53.80 196.62 50.33 200.07
  A 0.37 0.33 30.6 0 0 50.51 200.63
  C 57.48 202.98 67.03 205.73 74.42 204.67
  Q 76.07 204.43 74.57 203.69"
/>
<path stroke="#675449" vector-effect="non-scaling-stroke" d="
  M 82.17 217.86
  C 79.09 212.56 61.93 212.80 56.58 212.99
  C 54.55 213.06 54.74 214.17 56.43 214.84
  Q 68.51 219.59 81.51 219.06
  A 0.80 0.80 73.9 0 0 82.17 217.86"
/>
<path stroke="#69574c" vector-effect="non-scaling-stroke" d="
  M 96.11 223.09
  Q 92.97 226.42 92.93 230.99
  Q 92.92 232.42 93.96 231.47
  L 99.05 226.80
  A 0.81 0.50 57.7 0 0 99.04 225.98
  L 97.58 223.19
  A 0.95 0.86 -38.1 0 0 96.11 223.09"
/>
<path stroke="#898078" vector-effect="non-scaling-stroke" d="
  M 129.4557 151.5433
  A 4.07 3.28 93.3 0 0 132.9646 147.6688
  A 4.07 3.28 93.3 0 0 129.9243 143.4167
  A 4.07 3.28 93.3 0 0 126.4154 147.2912
  A 4.07 3.28 93.3 0 0 129.4557 151.5433"
/>
<path stroke="#8f887f" vector-effect="non-scaling-stroke" d="
  M 169.8633 151.0700
  A 3.83 3.22 90.1 0 0 173.0900 147.2456
  A 3.83 3.22 90.1 0 0 169.8767 143.4100
  A 3.83 3.22 90.1 0 0 166.6500 147.2344
  A 3.83 3.22 90.1 0 0 169.8633 151.0700"
/>
<path stroke="#f8ddd0" vector-effect="non-scaling-stroke" d="
  M 135.7985 159.4470
  A 6.83 5.36 -1.2 0 0 128.8577 154.2312
  A 6.83 5.36 -1.2 0 0 122.1415 159.7330
  A 6.83 5.36 -1.2 0 0 129.0823 164.9488
  A 6.83 5.36 -1.2 0 0 135.7985 159.4470"
/>
<path stroke="#f8ddd0" vector-effect="non-scaling-stroke" d="
  M 177.1445 160.5845
  A 6.84 5.17 2.3 0 0 170.5175 155.1442
  A 6.84 5.17 2.3 0 0 163.4755 160.0355
  A 6.84 5.17 2.3 0 0 170.1025 165.4758
  A 6.84 5.17 2.3 0 0 177.1445 160.5845"
/>
<path stroke="#847e77" vector-effect="non-scaling-stroke" d="
  M 153.21 158.22
  C 151.92 158.78 146.07 158.24 146.04 158.35
  A 0.91 0.49 24.3 0 0 146.60 159.08
  Q 150.01 160.84 153.50 159.29
  C 154.29 158.94 154.85 157.51 153.21 158.22"
/>
<path stroke="#f8ddd0" vector-effect="non-scaling-stroke" d="
  M 107.37 144.59
  C 106.21 141.73 103.39 143.61 103.58 146.33
  C 103.81 149.42 108.47 147.30 107.37 144.59"
/>
<path stroke="#f1ded1" vector-effect="non-scaling-stroke" d="
  M 193.1952 151.5372
  A 3.22 2.04 92.4 0 0 195.3682 148.4054
  A 3.22 2.04 92.4 0 0 193.4648 145.1028
  A 3.22 2.04 92.4 0 0 191.2918 148.2346
  A 3.22 2.04 92.4 0 0 193.1952 151.5372"
/>
</g>
<path fill="#fefefe" d="
  M 0.00 0.00
  L 283.00 0.00
  L 283.00 259.00
  L 0.00 259.00
  L 0.00 0.00
  Z
  M 106.71 187.00
  Q 104.61 187.17 102.96 188.28
  A 1.36 1.13 83.5 0 0 102.45 189.06
  Q 101.08 194.81 97.50 199.46
  C 92.31 204.77 87.30 208.44 84.11 215.42
  Q 83.58 216.59 83.03 215.45
  L 78.72 206.52
  A 0.62 0.54 63.5 0 1 78.92 205.74
  C 87.78 201.19 92.71 189.88 94.09 180.38
  Q 94.45 177.89 92.31 179.21
  C 87.24 182.35 80.07 196.74 77.60 202.29
  Q 77.13 203.34 76.70 202.27
  L 72.48 191.51
  A 0.99 0.79 -27.3 0 1 72.95 190.46
  C 78.36 187.18 80.51 182.74 83.67 176.40
  C 84.51 174.71 88.25 166.52 87.66 165.04
  C 86.65 162.54 76.37 176.70 75.14 178.63
  Q 72.60 182.59 71.55 187.31
  Q 71.35 188.19 71.11 187.42
  L 66.72 173.76
  A 0.67 0.67 68.5 0 1 67.07 172.95
  C 74.80 169.22 79.11 161.34 81.42 153.20
  Q 82.18 150.53 79.84 152.03
  C 75.11 155.06 69.63 163.68 66.31 168.20
  Q 65.45 169.38 65.16 168.06
  L 63.52 160.75
  A 0.74 0.67 -21.7 0 1 63.90 159.98
  C 72.28 155.56 77.45 146.22 79.46 137.17
  Q 79.92 135.09 78.22 136.44
  Q 68.58 144.07 62.91 154.95
  Q 62.21 156.29 62.00 154.99
  L 60.43 145.57
  A 0.68 0.68 73.6 0 1 60.83 144.83
  Q 73.61 139.35 75.83 125.38
  A 0.46 0.46 -85.8 0 0 75.37 124.84
  C 72.01 124.88 62.68 136.92 60.33 139.84
  Q 59.29 141.14 59.22 139.50
  L 59.11 136.93
  A 1.13 0.89 74.5 0 1 59.48 136.05
  Q 68.47 129.48 71.05 118.50
  Q 71.24 117.66 70.74 117.50
  A 1.05 0.64 -51.7 0 0 69.87 117.82
  C 68.93 118.75 61.28 127.90 60.91 127.29
  A 1.18 0.71 -57.7 0 1 60.93 126.37
  C 61.77 124.24 66.68 105.56 62.93 107.52
  A 1.44 1.09 -89.1 0 0 62.35 108.26
  Q 60.17 114.78 58.28 121.41
  C 57.45 124.32 57.89 127.01 57.92 130.00
  Q 57.93 130.53 57.53 130.20
  C 56.10 129.02 55.36 127.00 54.30 125.86
  Q 51.59 122.94 49.77 122.31
  Q 44.80 120.61 47.80 124.93
  Q 51.33 130.01 55.35 133.56
  C 57.21 135.20 58.44 137.10 58.05 139.42
  Q 57.78 141.07 56.79 139.69
  Q 51.70 132.56 43.79 128.66
  Q 42.33 127.94 42.77 129.48
  C 44.55 135.72 52.84 142.02 58.35 144.99
  A 1.36 0.56 21.6 0 1 59.10 145.72
  L 60.76 155.25
  Q 60.87 155.89 60.32 155.54
  C 53.78 151.32 50.24 148.52 42.20 151.47
  Q 38.58 152.80 41.99 154.28
  Q 51.38 158.34 61.42 160.38
  A 1.16 1.14 -0.7 0 1 62.31 161.23
  L 64.24 169.75
  Q 64.52 170.96 63.42 170.53
  Q 54.10 166.94 44.34 170.78
  Q 43.09 171.28 43.36 172.53
  A 0.93 0.81 4.5 0 0 43.98 173.16
  C 50.52 175.15 58.11 174.70 64.77 173.57
  A 0.65 0.50 75.6 0 1 65.37 174.04
  L 69.12 185.92
  Q 69.61 187.46 68.08 186.92
  C 59.92 184.05 53.22 181.58 44.53 184.75
  Q 43.49 185.13 44.39 185.78
  Q 46.11 187.02 48.35 187.32
  Q 59.02 188.74 69.80 190.17
  A 1.10 0.70 -1.7 0 1 70.63 190.66
  L 75.20 202.02
  Q 75.47 202.70 74.70 202.38
  C 68.35 199.75 54.60 196.23 48.23 199.44
  Q 46.60 200.25 48.26 200.89
  Q 61.95 206.16 76.56 205.63
  A 0.68 0.65 76.0 0 1 77.19 206.03
  L 81.33 214.93
  Q 81.62 215.57 80.96 215.33
  Q 68.08 210.66 54.39 212.09
  C 51.37 212.40 52.57 214.31 54.36 215.01
  C 63.54 218.63 73.30 220.92 83.19 219.59
  A 0.82 0.78 71.3 0 1 83.99 220.01
  L 87.85 227.16
  Q 88.27 227.92 87.55 227.58
  Q 75.28 221.73 61.81 224.60
  Q 59.66 225.05 61.47 226.26
  Q 64.86 228.55 68.95 229.71
  Q 76.53 230.99 84.26 231.65
  C 86.18 231.81 88.61 232.85 91.22 232.34
  Q 96.66 232.72 100.05 227.11
  Q 103.68 230.40 108.55 229.28
  A 0.59 0.44 -3.4 0 1 109.29 229.76
  L 108.72 232.00
  Q 108.47 232.98 108.48 233.04
  Q 108.98 236.24 111.95 234.40
  A 1.63 0.49 8.9 0 1 112.99 234.26
  C 135.35 235.62 157.37 234.74 179.71 235.02
  A 0.89 0.69 -6.6 0 1 180.50 235.50
  Q 180.73 236.19 181.44 235.94
  A 1.01 0.42 86.6 0 0 181.76 235.03
  C 181.71 231.09 184.84 232.16 186.48 229.96
  L 189.78 226.34
  A 0.96 0.85 -47.9 0 1 191.05 226.20
  L 195.81 230.44
  A 0.96 0.38 39.2 0 1 196.26 231.25
  L 195.76 232.25
  A 1.27 0.50 -58.4 0 0 195.59 233.22
  C 196.10 234.23 197.49 232.07 197.94 231.37
  A 0.99 0.83 16.0 0 1 198.77 231.00
  Q 214.39 232.00 227.82 224.05
  Q 230.22 222.64 227.44 222.06
  Q 214.27 219.36 202.17 225.07
  Q 201.46 225.40 201.88 224.64
  L 205.71 217.69
  A 0.87 0.77 14.9 0 1 206.51 217.29
  Q 221.77 218.42 235.73 212.32
  C 236.60 211.94 237.72 210.88 236.38 210.15
  Q 235.37 209.61 233.51 209.44
  Q 220.55 208.29 208.51 213.04
  Q 207.67 213.37 208.15 212.41
  L 212.59 203.58
  A 1.08 0.70 9.0 0 1 213.51 203.17
  Q 227.78 203.69 241.19 198.62
  Q 244.10 197.52 241.03 196.56
  C 233.76 194.29 222.39 196.98 215.50 199.80
  Q 214.31 200.29 214.72 199.24
  L 218.91 188.43
  A 1.10 0.77 1.1 0 1 219.72 187.89
  Q 230.32 186.14 240.97 184.78
  Q 243.14 184.50 244.65 183.91
  Q 246.49 183.18 244.76 182.23
  C 238.57 178.82 227.08 181.66 221.18 184.71
  Q 220.14 185.24 220.46 184.20
  L 224.36 171.58
  A 0.61 0.44 12.2 0 1 225.02 171.29
  Q 235.01 173.02 244.92 171.01
  C 246.98 170.60 246.98 169.20 245.15 168.40
  Q 235.96 164.36 226.51 168.01
  Q 225.18 168.53 225.49 167.25
  L 227.72 158.24
  A 0.73 0.71 1.6 0 1 228.31 157.70
  C 228.78 157.62 256.05 151.50 247.39 148.79
  Q 237.41 145.67 229.97 152.75
  Q 228.64 154.02 228.97 152.25
  L 230.41 144.68
  Q 230.81 142.56 232.79 141.54
  Q 242.31 136.63 247.03 126.97
  Q 247.66 125.69 246.30 126.07
  C 240.65 127.69 235.93 133.57 232.15 137.86
  Q 231.81 138.24 231.77 137.73
  C 231.62 135.51 231.71 133.73 233.41 132.00
  C 237.09 128.25 241.22 124.90 243.01 119.75
  Q 243.43 118.56 242.25 119.00
  Q 235.88 121.41 232.71 127.46
  Q 232.24 128.36 231.74 127.67
  A 1.23 0.86 -63.2 0 1 231.61 126.76
  C 233.00 120.79 230.18 113.82 227.65 106.35
  C 227.38 105.56 226.32 104.22 225.74 105.74
  C 224.05 110.19 227.08 119.57 228.60 124.30
  C 228.91 125.26 228.60 125.60 228.01 124.84
  C 226.32 122.68 217.14 110.79 218.71 116.77
  Q 221.42 127.04 229.82 133.49
  A 1.19 0.24 36.0 0 1 230.53 134.27
  L 230.20 137.69
  Q 230.13 138.44 229.55 137.71
  Q 223.72 130.33 217.17 123.59
  C 215.95 122.33 212.81 120.30 213.81 124.73
  Q 216.62 137.16 228.77 142.33
  A 0.82 0.51 20.3 0 1 229.30 143.01
  L 227.28 153.00
  Q 227.18 153.53 226.88 152.94
  Q 221.25 141.93 211.65 134.10
  A 1.26 0.77 49.5 0 0 210.73 133.80
  Q 210.00 133.98 210.25 135.00
  C 212.41 143.78 216.93 152.69 225.08 157.30
  A 0.92 0.51 24.7 0 1 225.60 158.01
  L 224.40 165.99
  Q 224.26 166.97 223.68 166.09
  Q 217.59 156.89 209.58 149.36
  C 209.10 148.90 207.75 148.60 207.98 149.75
  C 209.52 157.39 214.61 166.59 221.95 170.04
  A 1.46 1.46 -69.3 0 1 222.73 171.77
  Q 220.94 177.96 219.13 184.43
  C 218.93 185.14 218.29 185.78 218.00 184.49
  C 216.11 176.35 210.33 169.63 203.52 162.73
  Q 202.81 162.01 202.11 162.42
  A 0.75 0.61 68.3 0 0 201.86 163.22
  C 204.06 170.85 209.58 184.50 217.04 188.29
  A 0.64 0.59 25.3 0 1 217.35 189.06
  L 212.75 199.85
  Q 212.54 200.34 212.30 199.86
  C 210.96 197.10 198.94 175.49 196.52 176.00
  A 1.41 1.40 78.2 0 0 195.44 177.66
  C 197.54 188.06 201.65 198.31 210.83 203.65
  A 0.47 0.45 28.4 0 1 211.02 204.25
  L 206.95 212.68
  Q 206.21 214.21 205.54 212.69
  C 202.49 205.76 193.55 197.74 187.64 193.36
  Q 184.53 191.06 185.77 194.73
  C 188.86 203.83 194.04 214.07 203.59 217.31
  A 0.60 0.45 22.6 0 1 204.00 218.01
  L 198.74 227.53
  Q 198.33 228.26 198.01 227.45
  L 195.52 221.27
  Q 195.32 220.77 194.92 220.43
  Q 192.96 218.78 191.96 216.50
  C 190.97 206.70 187.01 198.90 182.21 189.75
  Q 184.04 187.77 186.68 187.50
  A 1.03 0.93 -76.7 0 0 187.43 186.98
  Q 195.12 173.13 194.52 157.26
  A 1.01 0.81 -22.8 0 1 194.92 156.52
  Q 198.59 153.70 199.79 149.25
  Q 201.69 143.30 197.63 139.13
  A 1.86 1.76 -74.4 0 1 197.16 138.24
  Q 196.14 133.21 197.35 128.27
  A 1.91 1.63 -51.8 0 0 197.31 127.25
  Q 193.63 116.84 187.96 107.45
  Q 187.25 106.46 187.93 105.59
  A 0.61 0.57 31.9 0 1 188.67 105.44
  Q 198.23 110.24 209.01 109.98
  A 0.70 0.67 6.2 0 0 209.65 109.49
  Q 209.95 108.46 208.99 107.69
  Q 201.09 101.39 190.48 102.67
  Q 189.70 102.77 189.98 102.24
  L 194.46 93.70
  A 0.86 0.77 15.1 0 1 195.25 93.30
  Q 205.29 94.04 215.17 92.45
  Q 219.31 91.78 215.94 89.53
  Q 207.29 83.74 198.22 89.05
  Q 196.05 90.32 197.13 88.17
  L 201.48 79.52
  A 1.33 0.73 -2.2 0 1 202.36 78.99
  Q 212.86 76.78 220.31 69.08
  C 221.89 67.45 220.32 66.71 218.83 67.19
  Q 210.74 69.81 203.94 74.98
  Q 203.15 75.58 203.34 74.60
  C 203.91 71.74 205.22 70.32 207.96 68.91
  Q 214.37 65.61 219.01 60.01
  Q 220.12 58.67 218.24 59.00
  Q 211.83 60.13 207.25 64.77
  A 1.20 0.60 -52.3 0 1 206.38 65.19
  C 205.81 65.08 206.01 64.33 206.23 63.95
  C 209.33 58.60 207.80 48.65 207.23 42.62
  Q 206.99 40.12 205.70 42.27
  C 202.88 46.95 203.58 56.85 204.21 62.11
  C 204.25 62.42 204.21 62.53 203.88 62.54
  A 0.68 0.42 72.3 0 1 203.39 62.12
  Q 199.39 53.03 197.92 50.33
  C 197.13 48.88 196.18 49.43 196.19 50.81
  Q 196.34 61.63 202.91 70.14
  A 0.91 0.57 48.2 0 1 203.07 71.07
  L 201.55 73.06
  A 0.53 0.39 54.9 0 1 200.80 72.81
  C 199.45 69.90 187.92 43.84 189.75 61.73
  Q 190.76 71.59 199.58 78.28
  A 0.80 0.60 32.2 0 1 199.89 79.10
  L 195.87 88.17
  Q 195.33 89.38 195.02 88.04
  C 194.39 85.30 187.18 64.25 183.82 65.72
  A 0.88 0.69 81.7 0 0 183.39 66.47
  C 183.15 74.86 185.97 86.62 192.87 92.48
  A 0.83 0.43 37.7 0 1 193.23 93.25
  L 189.29 100.53
  Q 189.00 101.06 188.76 100.47
  Q 184.61 90.06 179.32 80.18
  Q 178.77 79.15 177.99 79.86
  A 1.32 0.97 76.3 0 0 177.63 80.73
  Q 177.02 94.69 186.76 104.44
  Q 186.93 104.61 186.94 104.77
  C 187.01 106.20 183.15 101.87 183.04 101.75
  L 175.94 96.98
  A 0.90 0.79 20.1 0 1 175.54 96.25
  Q 175.59 94.91 175.00 93.71
  L 172.84 89.67
  A 0.96 0.70 49.7 0 1 172.78 88.84
  C 195.43 46.76 159.67 0.01 112.77 14.81
  C 101.48 18.37 88.64 27.31 85.46 39.43
  C 81.78 53.50 81.88 71.51 91.05 83.66
  C 92.54 85.64 95.08 87.67 96.79 90.08
  A 0.69 0.66 -43.9 0 1 96.76 90.88
  C 93.13 95.62 88.93 101.67 93.90 106.44
  A 0.92 0.91 27.9 0 1 94.16 107.28
  C 89.58 129.04 90.16 154.84 100.30 175.13
  C 102.30 179.12 108.01 182.04 106.71 187.00
  Z
  M 187.77 44.28
  Q 188.81 44.49 189.48 43.72
  C 192.88 39.80 197.36 34.61 197.23 29.32
  A 1.00 0.82 -78.2 0 0 196.81 28.52
  C 194.98 27.41 193.29 29.79 192.25 31.00
  Q 191.41 31.97 191.13 30.85
  C 190.57 28.62 189.51 24.83 186.53 25.17
  A 1.12 0.98 -74.2 0 0 185.76 25.67
  C 182.54 30.69 184.39 38.48 186.65 43.40
  A 1.59 1.59 -15.3 0 0 187.77 44.28
  Z
  M 73.52 82.93
  C 71.52 81.66 69.48 79.24 67.43 78.66
  C 63.93 77.67 64.49 81.68 65.81 83.41
  Q 72.42 92.15 81.54 98.29
  A 1.34 0.95 49.0 0 0 82.46 98.51
  C 84.43 98.08 81.95 87.47 81.82 85.39
  C 81.58 81.55 80.08 69.89 75.40 70.30
  A 1.22 1.19 -73.0 0 0 74.58 70.75
  C 71.65 74.37 73.74 79.02 73.92 82.69
  Q 73.95 83.20 73.52 82.93
  Z
  M 206.98 118.24
  L 206.25 115.75
  A 1.09 0.71 9.8 0 0 205.64 115.18
  C 201.80 113.70 201.31 123.68 201.69 125.95
  C 203.00 133.78 211.93 122.14 211.22 119.45
  Q 210.66 117.33 207.53 118.50
  A 0.42 0.41 -19.1 0 1 206.98 118.24
  Z"
/>
<path fill="#0e0907" d="
  M 175.00 93.71
  L 174.04 93.75
  Q 173.43 91.66 171.71 90.45
  A 0.66 0.62 -47.6 0 0 170.92 90.51
  Q 168.08 93.02 170.31 90.04
  C 180.54 76.35 180.84 56.86 174.76 41.49
  Q 171.91 34.30 163.69 26.03
  Q 141.34 7.01 112.75 15.84
  C 97.96 20.41 85.35 31.98 84.83 48.31
  C 81.59 66.07 88.12 87.63 106.81 94.29
  Q 107.46 94.53 106.88 94.75
  C 105.99 95.08 99.68 91.73 98.43 91.09
  A 0.59 0.59 -59.3 0 0 97.69 91.28
  C 93.70 96.83 88.20 103.27 98.79 106.75
  L 98.00 107.29
  Q 95.56 106.73 95.01 109.01
  C 92.23 120.44 92.69 133.08 93.27 144.76
  Q 94.07 160.67 102.91 177.40
  A 0.99 0.58 70.2 0 0 103.57 177.95
  Q 112.88 178.18 121.79 175.51
  A 1.20 1.15 82.7 0 0 122.61 174.40
  C 122.70 170.12 122.25 166.99 118.72 164.27
  Q 114.89 161.31 112.30 157.11
  A 1.07 1.03 76.8 0 0 111.54 156.62
  Q 100.27 155.27 99.26 143.72
  Q 99.09 141.69 100.75 139.46
  L 101.54 139.75
  C 98.31 146.47 102.76 155.09 110.58 155.32
  A 0.43 0.39 86.8 0 0 110.98 154.83
  L 109.29 142.75
  L 110.46 142.25
  L 110.71 145.28
  Q 111.32 161.54 125.92 167.36
  C 145.64 175.22 185.49 177.29 187.54 146.68
  Q 187.76 145.22 188.96 146.00
  Q 188.16 152.69 185.49 158.35
  Q 184.99 159.41 186.14 159.20
  Q 195.98 157.38 199.04 148.00
  Q 200.01 148.14 199.79 149.25
  Q 198.59 153.70 194.92 156.52
  A 1.01 0.81 -22.8 0 0 194.52 157.26
  Q 195.12 173.13 187.43 186.98
  A 1.03 0.93 -76.7 0 1 186.68 187.50
  Q 184.04 187.77 182.21 189.75
  Q 180.55 190.40 179.50 189.21
  Q 174.93 181.56 167.50 187.04
  Q 166.74 186.39 167.39 185.84
  A 0.98 0.78 -27.1 0 0 167.74 185.07
  L 167.49 182.58
  Q 169.24 179.86 169.21 176.48
  A 2.18 1.71 -36.1 0 1 169.49 175.49
  L 171.94 171.19
  Q 172.62 170.00 171.26 170.28
  L 157.52 173.09
  A 0.69 0.59 -3.8 0 0 156.98 173.62
  Q 156.82 174.99 157.25 176.46
  Q 156.57 176.98 156.27 177.65
  L 155.52 173.83
  A 0.84 0.63 -3.0 0 0 154.75 173.31
  L 141.75 172.96
  A 0.77 0.65 9.2 0 0 141.02 173.40
  Q 140.88 173.81 140.96 174.25
  L 139.50 173.71
  Q 139.81 173.44 139.75 173.11
  A 1.04 0.64 5.2 0 0 138.94 172.51
  Q 131.19 171.04 124.02 167.69
  Q 122.64 167.04 122.97 168.54
  Q 124.00 173.26 122.92 178.23
  Q 122.84 178.62 123.21 179.50
  L 121.75 180.46
  L 122.09 178.06
  A 1.27 1.06 -5.1 0 0 120.49 176.95
  Q 113.72 178.68 106.76 179.06
  A 0.64 0.55 -87.2 0 0 106.24 179.61
  Q 105.95 181.65 107.66 183.06
  A 0.64 0.60 -44.0 0 0 108.45 183.05
  Q 111.15 180.90 114.50 180.04
  L 114.25 180.96
  C 112.54 181.40 103.88 187.14 109.79 187.25
  Q 107.93 189.56 106.71 187.00
  C 108.01 182.04 102.30 179.12 100.30 175.13
  C 90.16 154.84 89.58 129.04 94.16 107.28
  A 0.92 0.91 27.9 0 0 93.90 106.44
  C 88.93 101.67 93.13 95.62 96.76 90.88
  A 0.69 0.66 -43.9 0 0 96.79 90.08
  C 95.08 87.67 92.54 85.64 91.05 83.66
  C 81.88 71.51 81.78 53.50 85.46 39.43
  C 88.64 27.31 101.48 18.37 112.77 14.81
  C 159.67 0.01 195.43 46.76 172.78 88.84
  A 0.96 0.70 49.7 0 0 172.84 89.67
  L 175.00 93.71
  Z
  M 170.11 177.36
  L 185.49 186.32
  A 1.16 1.02 28.9 0 0 187.04 185.98
  Q 193.71 173.09 193.40 158.50
  A 0.43 0.32 -11.2 0 0 192.86 158.24
  L 184.57 160.68
  A 1.74 1.06 -1.5 0 0 183.72 161.23
  Q 180.07 166.53 174.22 169.21
  A 1.59 1.55 0.8 0 0 173.45 169.94
  L 170.00 177.00
  A 0.29 0.27 29.7 0 0 170.11 177.36
  Z
  M 183.92 186.58
  Q 177.57 182.06 170.49 178.77
  A 0.46 0.45 18.7 0 0 169.85 179.08
  L 168.98 182.98
  A 1.07 1.04 0.2 0 0 170.25 184.22
  Q 176.94 182.82 180.36 188.35
  A 0.82 0.52 57.5 0 0 181.26 188.77
  L 183.95 186.96
  A 0.25 0.22 43.8 0 0 183.92 186.58
  Z"
/>
<path fill="#9f836f" d="
  M 163.69 26.03
  C 158.78 30.83 154.81 31.80 147.70 31.84
  Q 144.04 31.87 140.40 32.70
  Q 133.52 30.57 126.31 30.98
  Q 120.87 29.63 113.49 31.22
  C 103.28 33.42 96.92 37.15 90.34 44.49
  Q 88.06 47.04 84.83 48.31
  C 85.35 31.98 97.96 20.41 112.75 15.84
  Q 141.34 7.01 163.69 26.03
  Z"
/>
<path fill="#f3f2f2" d="
  M 187.77 44.28
  A 1.59 1.59 -0.0 0 1 186.65 43.40
  C 184.39 38.48 182.54 30.69 185.76 25.67
  A 1.12 0.98 -74.2 0 1 186.53 25.17
  C 189.51 24.83 190.57 28.62 191.13 30.85
  Q 191.41 31.97 192.25 31.00
  C 193.29 29.79 194.98 27.41 196.81 28.52
  A 1.00 0.82 -78.2 0 1 197.23 29.32
  C 197.36 34.61 192.88 39.80 189.48 43.72
  Q 188.81 44.49 187.77 44.28
  Z"
/>
<path fill="#caa88d" d="
  M 163.69 26.03
  Q 171.91 34.30 174.76 41.49
  C 180.84 56.86 180.54 76.35 170.31 90.04
  Q 168.08 93.02 170.92 90.51
  A 0.66 0.62 -47.6 0 1 171.71 90.45
  Q 173.43 91.66 174.04 93.75
  Q 175.48 97.99 171.24 96.74
  C 150.70 90.72 130.31 90.24 112.47 103.83
  C 107.91 107.30 104.17 108.14 98.79 106.75
  C 88.20 103.27 93.70 96.83 97.69 91.28
  A 0.59 0.59 -59.3 0 1 98.43 91.09
  C 99.68 91.73 105.99 95.08 106.88 94.75
  Q 107.46 94.53 106.81 94.29
  C 88.12 87.63 81.59 66.07 84.83 48.31
  Q 88.06 47.04 90.34 44.49
  C 96.92 37.15 103.28 33.42 113.49 31.22
  Q 120.87 29.63 126.31 30.98
  C 111.27 35.57 98.50 46.70 90.23 59.81
  A 1.27 1.24 -35.2 0 0 90.06 60.73
  Q 90.97 65.49 92.00 70.22
  C 95.77 87.60 120.67 92.46 135.33 91.86
  C 153.75 91.11 168.23 85.42 170.35 64.75
  A 1.06 0.65 87.1 0 1 170.79 63.94
  C 171.16 63.76 173.37 65.27 172.33 63.59
  C 164.32 50.65 154.12 39.56 140.40 32.70
  Q 144.04 31.87 147.70 31.84
  C 154.81 31.80 158.78 30.83 163.69 26.03
  Z
  M 99.64 101.26
  C 101.43 104.63 110.89 102.68 113.75 101.67
  A 0.83 0.62 -13.8 0 0 114.30 101.00
  L 114.25 99.82
  A 0.67 0.54 80.9 0 1 114.62 99.17
  Q 122.70 96.60 113.22 97.09
  Q 112.36 97.13 111.11 97.35
  Q 105.71 98.31 98.24 97.73
  Q 96.37 97.59 97.06 99.29
  A 1.45 1.27 87.7 0 0 97.75 100.02
  L 98.94 100.56
  A 1.67 1.20 80.8 0 1 99.64 101.26
  Z"
/>
<path fill="#170e09" d="
  M 140.40 32.70
  C 154.12 39.56 164.32 50.65 172.33 63.59
  C 173.37 65.27 171.16 63.76 170.79 63.94
  A 1.06 0.65 87.1 0 0 170.35 64.75
  C 168.23 85.42 153.75 91.11 135.33 91.86
  C 120.67 92.46 95.77 87.60 92.00 70.22
  Q 90.97 65.49 90.06 60.73
  A 1.27 1.24 -35.2 0 1 90.23 59.81
  C 98.50 46.70 111.27 35.57 126.31 30.98
  Q 133.52 30.57 140.40 32.70
  Z
  M 144.06 35.77
  C 134.60 29.44 122.13 31.31 113.32 37.78
  Q 112.34 38.50 113.55 38.38
  Q 120.19 37.71 126.81 36.94
  C 132.54 36.27 137.93 36.79 143.64 37.06
  Q 146.18 37.19 144.06 35.77
  Z
  M 104.28 45.27
  Q 98.55 50.35 93.74 56.75
  C 91.20 60.13 91.54 62.38 92.18 66.32
  C 96.53 92.80 133.57 93.14 151.90 87.60
  C 162.93 84.26 169.01 74.62 169.19 63.18
  Q 169.22 61.49 168.29 60.07
  Q 162.22 50.82 155.31 44.64
  C 152.86 41.46 150.28 38.93 146.10 38.22
  Q 137.62 36.76 128.99 37.41
  C 118.64 38.18 109.59 38.03 104.28 45.27
  Z"
/>
<path fill="#b39f91" d="
  M 144.06 35.77
  Q 146.18 37.19 143.64 37.06
  C 137.93 36.79 132.54 36.27 126.81 36.94
  Q 120.19 37.71 113.55 38.38
  Q 112.34 38.50 113.32 37.78
  C 122.13 31.31 134.60 29.44 144.06 35.77
  Z"
/>
<path fill="#f6c7b8" d="
  M 155.31 44.64
  Q 144.59 45.72 133.94 44.81
  Q 124.02 43.97 120.53 44.05
  Q 112.38 44.22 104.28 45.27
  C 109.59 38.03 118.64 38.18 128.99 37.41
  Q 137.62 36.76 146.10 38.22
  C 150.28 38.93 152.86 41.46 155.31 44.64
  Z"
/>
<path fill="#0e0907" d="
  M 187.96 107.45
  Q 182.52 105.31 179.35 100.71
  Q 179.03 100.24 179.54 100.47
  Q 180.63 100.97 181.37 101.96
  A 1.39 0.74 64.5 0 0 182.13 102.52
  Q 182.91 102.64 183.04 101.75
  C 183.15 101.87 187.01 106.20 186.94 104.77
  Q 186.93 104.61 186.76 104.44
  Q 177.02 94.69 177.63 80.73
  A 1.32 0.97 76.3 0 1 177.99 79.86
  Q 178.77 79.15 179.32 80.18
  Q 184.61 90.06 188.76 100.47
  Q 189.00 101.06 189.29 100.53
  L 193.23 93.25
  A 0.83 0.43 37.7 0 0 192.87 92.48
  C 185.97 86.62 183.15 74.86 183.39 66.47
  A 0.88 0.69 81.7 0 1 183.82 65.72
  C 187.18 64.25 194.39 85.30 195.02 88.04
  Q 195.33 89.38 195.87 88.17
  L 199.89 79.10
  A 0.80 0.60 32.2 0 0 199.58 78.28
  Q 190.76 71.59 189.75 61.73
  C 187.92 43.84 199.45 69.90 200.80 72.81
  A 0.53 0.39 54.9 0 0 201.55 73.06
  L 203.07 71.07
  A 0.91 0.57 48.2 0 0 202.91 70.14
  Q 196.34 61.63 196.19 50.81
  C 196.18 49.43 197.13 48.88 197.92 50.33
  Q 199.39 53.03 203.39 62.12
  A 0.68 0.42 72.3 0 0 203.88 62.54
  C 204.21 62.53 204.25 62.42 204.21 62.11
  C 203.58 56.85 202.88 46.95 205.70 42.27
  Q 206.99 40.12 207.23 42.62
  C 207.80 48.65 209.33 58.60 206.23 63.95
  C 206.01 64.33 205.81 65.08 206.38 65.19
  A 1.20 0.60 -52.3 0 0 207.25 64.77
  Q 211.83 60.13 218.24 59.00
  Q 220.12 58.67 219.01 60.01
  Q 214.37 65.61 207.96 68.91
  C 205.22 70.32 203.91 71.74 203.34 74.60
  Q 203.15 75.58 203.94 74.98
  Q 210.74 69.81 218.83 67.19
  C 220.32 66.71 221.89 67.45 220.31 69.08
  Q 212.86 76.78 202.36 78.99
  A 1.33 0.73 -2.2 0 0 201.48 79.52
  L 197.13 88.17
  Q 196.05 90.32 198.22 89.05
  Q 207.29 83.74 215.94 89.53
  Q 219.31 91.78 215.17 92.45
  Q 205.29 94.04 195.25 93.30
  A 0.86 0.77 15.1 0 0 194.46 93.70
  L 189.98 102.24
  Q 189.70 102.77 190.48 102.67
  Q 201.09 101.39 208.99 107.69
  Q 209.95 108.46 209.65 109.49
  A 0.70 0.67 6.2 0 1 209.01 109.98
  Q 198.23 110.24 188.67 105.44
  A 0.61 0.57 31.9 0 0 187.93 105.59
  Q 187.25 106.46 187.96 107.45
  Z
  M 205.9232 61.8300
  A 7.57 0.96 89.9 0 0 206.8700 54.2583
  A 7.57 0.96 89.9 0 0 205.8968 46.6900
  A 7.57 0.96 89.9 0 0 204.9500 54.2617
  A 7.57 0.96 89.9 0 0 205.9232 61.8300
  Z
  M 204.31 68.47
  C 204.31 64.40 200.17 57.00 198.22 53.30
  Q 197.59 52.11 197.63 53.48
  Q 197.83 62.13 203.05 68.89
  Q 204.31 70.52 204.31 68.47
  Z
  M 198.22 75.82
  Q 202.15 79.44 200.24 74.54
  Q 196.75 65.56 191.63 57.40
  Q 190.94 56.30 190.84 57.59
  Q 190.00 68.26 198.22 75.82
  Z
  M 215.5826 61.2510
  A 5.32 1.28 -35.1 0 0 210.4940 63.2628
  A 5.32 1.28 -35.1 0 0 206.8774 67.3690
  A 5.32 1.28 -35.1 0 0 211.9660 65.3572
  A 5.32 1.28 -35.1 0 0 215.5826 61.2510
  Z
  M 193.27 91.10
  A 0.53 0.53 13.2 0 0 194.02 90.64
  Q 194.17 86.31 192.58 82.18
  C 191.93 80.47 186.40 68.09 184.92 68.29
  A 0.69 0.53 85.7 0 0 184.47 68.98
  C 184.63 74.65 187.37 88.44 193.27 91.10
  Z
  M 217.7993 69.2980
  A 7.94 1.46 -30.1 0 0 210.1978 72.0169
  A 7.94 1.46 -30.1 0 0 204.0607 77.2620
  A 7.94 1.46 -30.1 0 0 211.6622 74.5431
  A 7.94 1.46 -30.1 0 0 217.7993 69.2980
  Z
  M 185.94 102.06
  Q 189.08 105.39 187.81 101.24
  Q 184.96 91.92 179.81 83.70
  Q 179.10 82.57 179.04 83.88
  Q 178.57 94.27 185.94 102.06
  Z
  M 214.66 90.09
  C 209.05 86.30 201.49 86.98 196.56 90.70
  Q 194.61 92.16 197.04 92.36
  Q 201.80 92.73 206.19 92.22
  C 208.69 91.93 211.98 92.34 214.48 91.48
  Q 215.96 90.97 214.66 90.09
  Z
  M 207.81 108.29
  C 202.59 104.60 195.80 101.87 189.56 104.06
  Q 188.56 104.41 189.49 104.86
  Q 198.01 108.94 207.51 109.03
  Q 208.88 109.05 207.81 108.29
  Z"
/>
<path fill="#faf2e7" d="
  M 155.31 44.64
  Q 162.22 50.82 168.29 60.07
  Q 169.22 61.49 169.19 63.18
  C 169.01 74.62 162.93 84.26 151.90 87.60
  C 133.57 93.14 96.53 92.80 92.18 66.32
  C 91.54 62.38 91.20 60.13 93.74 56.75
  Q 98.55 50.35 104.28 45.27
  Q 112.38 44.22 120.53 44.05
  Q 124.02 43.97 133.94 44.81
  Q 144.59 45.72 155.31 44.64
  Z
  M 155.36 56.53
  C 154.48 52.55 147.14 54.43 145.17 56.46
  A 0.63 0.43 -37.1 0 0 144.98 57.02
  C 145.10 57.35 145.48 57.30 145.76 57.16
  C 149.01 55.61 151.36 53.87 154.58 56.97
  Q 155.69 58.03 155.36 56.53
  Z
  M 115.31 58.30
  C 114.17 54.10 107.31 56.29 105.38 58.52
  A 0.55 0.42 -37.4 0 0 105.25 59.00
  L 105.31 59.19
  A 0.59 0.36 -34.3 0 0 106.11 59.15
  Q 110.30 55.62 114.91 58.60
  Q 115.50 58.99 115.31 58.30
  Z
  M 150.9925 67.5374
  A 3.89 3.21 87.9 0 0 154.0578 63.5324
  A 3.89 3.21 87.9 0 0 150.7075 59.7626
  A 3.89 3.21 87.9 0 0 147.6422 63.7676
  A 3.89 3.21 87.9 0 0 150.9925 67.5374
  Z
  M 110.5240 68.0086
  A 4.05 3.27 91.5 0 0 113.8989 64.0456
  A 4.05 3.27 91.5 0 0 110.7360 59.9114
  A 4.05 3.27 91.5 0 0 107.3611 63.8744
  A 4.05 3.27 91.5 0 0 110.5240 68.0086
  Z
  M 117.6100 75.8437
  A 6.79 5.24 0.2 0 0 110.8383 70.5800
  A 6.79 5.24 0.2 0 0 104.0300 75.7963
  A 6.79 5.24 0.2 0 0 110.8017 81.0600
  A 6.79 5.24 0.2 0 0 117.6100 75.8437
  Z
  M 159.2395 76.2569
  A 6.80 5.29 -0.7 0 0 152.3754 71.0504
  A 6.80 5.29 -0.7 0 0 145.6405 76.4231
  A 6.80 5.29 -0.7 0 0 152.5046 81.6296
  A 6.80 5.29 -0.7 0 0 159.2395 76.2569
  Z
  M 126.56 73.29
  C 127.28 77.79 133.59 77.91 135.98 74.43
  Q 137.13 72.76 135.01 72.76
  L 127.00 72.75
  A 0.47 0.45 85.6 0 0 126.56 73.29
  Z"
/>
<ellipse fill="#bbb596" cx="0.00" cy="0.00" transform="translate(205.91,54.26) rotate(89.9)" rx="7.57" ry="0.96"/>
<path fill="#b39f91" d="
  M 204.31 68.47
  Q 204.31 70.52 203.05 68.89
  Q 197.83 62.13 197.63 53.48
  Q 197.59 52.11 198.22 53.30
  C 200.17 57.00 204.31 64.40 204.31 68.47
  Z"
/>
<path fill="#0e0907" d="
  M 145.17 56.46
  C 147.14 54.43 154.48 52.55 155.36 56.53
  Q 155.69 58.03 154.58 56.97
  C 151.36 53.87 149.01 55.61 145.76 57.16
  C 145.48 57.30 145.10 57.35 144.98 57.02
  A 0.63 0.43 -37.1 0 1 145.17 56.46
  Z"
/>
<path fill="#170e09" d="
  M 105.38 58.52
  C 107.31 56.29 114.17 54.10 115.31 58.30
  Q 115.50 58.99 114.91 58.60
  Q 110.30 55.62 106.11 59.15
  A 0.59 0.36 -34.3 0 1 105.31 59.19
  L 105.25 59.00
  A 0.55 0.42 -37.4 0 1 105.38 58.52
  Z"
/>
<path fill="#b39f91" d="
  M 198.22 75.82
  Q 190.00 68.26 190.84 57.59
  Q 190.94 56.30 191.63 57.40
  Q 196.75 65.56 200.24 74.54
  Q 202.15 79.44 198.22 75.82
  Z"
/>
<ellipse fill="#170e09" cx="0.00" cy="0.00" transform="translate(150.85,63.65) rotate(87.9)" rx="3.89" ry="3.21"/>
<ellipse fill="#170e09" cx="0.00" cy="0.00" transform="translate(110.63,63.96) rotate(91.5)" rx="4.05" ry="3.27"/>
<ellipse fill="#b5a297" cx="0.00" cy="0.00" transform="translate(211.23,64.31) rotate(-35.1)" rx="5.32" ry="1.28"/>
<path fill="#b69a89" d="
  M 193.27 91.10
  C 187.37 88.44 184.63 74.65 184.47 68.98
  A 0.69 0.53 85.7 0 1 184.92 68.29
  C 186.40 68.09 191.93 80.47 192.58 82.18
  Q 194.17 86.31 194.02 90.64
  A 0.53 0.53 13.2 0 1 193.27 91.10
  Z"
/>
<ellipse fill="#b5a297" cx="0.00" cy="0.00" transform="translate(210.93,73.28) rotate(-30.1)" rx="7.94" ry="1.46"/>
<path fill="#f3f2f2" d="
  M 73.92 82.69
  C 73.74 79.02 71.65 74.37 74.58 70.75
  A 1.22 1.19 -73.0 0 1 75.40 70.30
  C 80.08 69.89 81.58 81.55 81.82 85.39
  C 81.95 87.47 84.43 98.08 82.46 98.51
  A 1.34 0.95 49.0 0 1 81.54 98.29
  Q 72.42 92.15 65.81 83.41
  C 64.49 81.68 63.93 77.67 67.43 78.66
  C 69.48 79.24 71.52 81.66 73.52 82.93
  Q 73.95 83.20 73.92 82.69
  Z"
/>
<ellipse fill="#f6c7b8" cx="0.00" cy="0.00" transform="translate(110.82,75.82) rotate(0.2)" rx="6.79" ry="5.24"/>
<ellipse fill="#f6c7b8" cx="0.00" cy="0.00" transform="translate(152.44,76.34) rotate(-0.7)" rx="6.80" ry="5.29"/>
<path fill="#0e0907" d="
  M 135.98 74.43
  C 133.59 77.91 127.28 77.79 126.56 73.29
  A 0.47 0.45 85.6 0 1 127.00 72.75
  L 135.01 72.76
  Q 137.13 72.76 135.98 74.43
  Z
  M 133.93 73.79
  L 128.75 73.75
  Q 127.94 73.74 128.41 74.32
  Q 130.98 77.42 134.20 74.97
  Q 135.73 73.81 133.93 73.79
  Z"
/>
<path fill="#fefefe" d="
  M 133.93 73.79
  Q 135.73 73.81 134.20 74.97
  Q 130.98 77.42 128.41 74.32
  Q 127.94 73.74 128.75 73.75
  L 133.93 73.79
  Z"
/>
<path fill="#b39f91" d="
  M 185.94 102.06
  Q 178.57 94.27 179.04 83.88
  Q 179.10 82.57 179.81 83.70
  Q 184.96 91.92 187.81 101.24
  Q 189.08 105.39 185.94 102.06
  Z"
/>
<path fill="#b69a89" d="
  M 214.66 90.09
  Q 215.96 90.97 214.48 91.48
  C 211.98 92.34 208.69 91.93 206.19 92.22
  Q 201.80 92.73 197.04 92.36
  Q 194.61 92.16 196.56 90.70
  C 201.49 86.98 209.05 86.30 214.66 90.09
  Z"
/>
<path fill="#241d17" d="
  M 174.04 93.75
  L 175.00 93.71
  Q 175.59 94.91 175.54 96.25
  A 0.90 0.79 20.1 0 0 175.94 96.98
  L 183.04 101.75
  Q 182.91 102.64 182.13 102.52
  A 1.39 0.74 64.5 0 1 181.37 101.96
  Q 180.63 100.97 179.54 100.47
  Q 179.03 100.24 179.35 100.71
  Q 182.52 105.31 187.96 107.45
  Q 193.63 116.84 197.31 127.25
  A 1.91 1.63 -51.8 0 1 197.35 128.27
  Q 196.14 133.21 197.16 138.24
  A 1.86 1.76 -74.4 0 0 197.63 139.13
  Q 201.69 143.30 199.79 149.25
  Q 200.01 148.14 199.04 148.00
  C 200.24 136.47 187.65 137.75 188.96 146.00
  Q 187.76 145.22 187.54 146.68
  Q 186.93 148.18 185.79 148.59
  A 0.43 0.42 -12.9 0 1 185.23 148.25
  L 184.76 144.25
  A 1.84 1.33 -75.5 0 0 184.41 143.36
  C 182.25 140.76 182.76 137.94 180.71 135.25
  Q 178.62 131.51 174.67 129.67
  Q 173.84 129.29 173.99 130.01
  Q 174.13 130.69 173.83 131.33
  A 0.46 0.40 38.1 0 1 173.12 131.37
  Q 169.65 127.61 167.99 122.74
  Q 167.38 120.98 166.70 122.69
  C 165.16 126.55 162.95 133.80 158.96 135.73
  Q 158.14 136.12 158.57 135.32
  Q 159.92 132.80 160.54 130.01
  Q 160.96 128.15 159.58 129.56
  Q 154.25 135.03 146.74 136.39
  C 145.34 136.64 146.20 135.45 146.53 135.26
  Q 152.56 131.62 153.25 124.49
  Q 153.33 123.58 152.68 124.23
  C 150.10 126.80 147.50 129.70 144.29 131.32
  Q 135.56 135.72 125.54 135.67
  Q 123.84 135.66 125.16 134.64
  L 128.25 132.26
  Q 130.16 130.78 127.76 131.30
  Q 120.13 132.96 115.99 139.47
  C 115.00 141.02 113.36 141.43 113.93 138.53
  Q 114.06 137.84 113.45 138.22
  L 110.54 140.03
  A 0.92 0.76 70.5 0 0 110.21 140.93
  L 110.46 142.25
  L 109.29 142.75
  L 108.86 139.24
  A 1.07 0.91 13.1 0 0 108.31 138.50
  Q 104.43 136.43 101.54 139.75
  L 100.75 139.46
  Q 101.13 138.31 102.11 137.51
  A 1.05 0.87 -23.3 0 0 102.51 136.72
  C 102.29 131.68 101.51 125.69 102.61 119.74
  C 103.31 115.91 101.80 113.00 105.83 110.07
  C 106.42 109.64 106.95 108.20 105.77 108.22
  Q 100.95 108.27 98.00 107.29
  L 98.79 106.75
  C 104.17 108.14 107.91 107.30 112.47 103.83
  C 130.31 90.24 150.70 90.72 171.24 96.74
  Q 175.48 97.99 174.04 93.75
  Z"
/>
<path fill="#9f836f" d="
  M 98.94 100.56
  L 97.75 100.02
  A 1.45 1.27 87.7 0 1 97.06 99.29
  Q 96.37 97.59 98.24 97.73
  Q 105.71 98.31 111.11 97.35
  Q 112.36 97.13 113.22 97.09
  Q 122.70 96.60 114.62 99.17
  A 0.67 0.54 80.9 0 0 114.25 99.82
  L 114.30 101.00
  A 0.83 0.62 -13.8 0 1 113.75 101.67
  C 110.89 102.68 101.43 104.63 99.64 101.26
  A 1.67 1.20 80.8 0 0 98.94 100.56
  Z"
/>
<path fill="#b69a89" d="
  M 207.81 108.29
  Q 208.88 109.05 207.51 109.03
  Q 198.01 108.94 189.49 104.86
  Q 188.56 104.41 189.56 104.06
  C 195.80 101.87 202.59 104.60 207.81 108.29
  Z"
/>
<path fill="#2b1f14" d="
  M 186.48 229.96
  Q 187.89 227.44 188.83 224.79
  C 189.84 221.93 187.87 217.51 191.96 216.50
  Q 192.96 218.78 194.92 220.43
  Q 195.32 220.77 195.52 221.27
  L 198.01 227.45
  Q 198.33 228.26 198.74 227.53
  L 204.00 218.01
  A 0.60 0.45 22.6 0 0 203.59 217.31
  C 194.04 214.07 188.86 203.83 185.77 194.73
  Q 184.53 191.06 187.64 193.36
  C 193.55 197.74 202.49 205.76 205.54 212.69
  Q 206.21 214.21 206.95 212.68
  L 211.02 204.25
  A 0.47 0.45 28.4 0 0 210.83 203.65
  C 201.65 198.31 197.54 188.06 195.44 177.66
  A 1.41 1.40 78.2 0 1 196.52 176.00
  C 198.94 175.49 210.96 197.10 212.30 199.86
  Q 212.54 200.34 212.75 199.85
  L 217.35 189.06
  A 0.64 0.59 25.3 0 0 217.04 188.29
  C 209.58 184.50 204.06 170.85 201.86 163.22
  A 0.75 0.61 68.3 0 1 202.11 162.42
  Q 202.81 162.01 203.52 162.73
  C 210.33 169.63 216.11 176.35 218.00 184.49
  C 218.29 185.78 218.93 185.14 219.13 184.43
  Q 220.94 177.96 222.73 171.77
  A 1.46 1.46 -69.3 0 0 221.95 170.04
  C 214.61 166.59 209.52 157.39 207.98 149.75
  C 207.75 148.60 209.10 148.90 209.58 149.36
  Q 217.59 156.89 223.68 166.09
  Q 224.26 166.97 224.40 165.99
  L 225.60 158.01
  A 0.92 0.51 24.7 0 0 225.08 157.30
  C 216.93 152.69 212.41 143.78 210.25 135.00
  Q 210.00 133.98 210.73 133.80
  A 1.26 0.77 49.5 0 1 211.65 134.10
  Q 221.25 141.93 226.88 152.94
  Q 227.18 153.53 227.28 153.00
  L 229.30 143.01
  A 0.82 0.51 20.3 0 0 228.77 142.33
  Q 216.62 137.16 213.81 124.73
  C 212.81 120.30 215.95 122.33 217.17 123.59
  Q 223.72 130.33 229.55 137.71
  Q 230.13 138.44 230.20 137.69
  L 230.53 134.27
  A 1.19 0.24 36.0 0 0 229.82 133.49
  Q 221.42 127.04 218.71 116.77
  C 217.14 110.79 226.32 122.68 228.01 124.84
  C 228.60 125.60 228.91 125.26 228.60 124.30
  C 227.08 119.57 224.05 110.19 225.74 105.74
  C 226.32 104.22 227.38 105.56 227.65 106.35
  C 230.18 113.82 233.00 120.79 231.61 126.76
  A 1.23 0.86 -63.2 0 0 231.74 127.67
  Q 232.24 128.36 232.71 127.46
  Q 235.88 121.41 242.25 119.00
  Q 243.43 118.56 243.01 119.75
  C 241.22 124.90 237.09 128.25 233.41 132.00
  C 231.71 133.73 231.62 135.51 231.77 137.73
  Q 231.81 138.24 232.15 137.86
  C 235.93 133.57 240.65 127.69 246.30 126.07
  Q 247.66 125.69 247.03 126.97
  Q 242.31 136.63 232.79 141.54
  Q 230.81 142.56 230.41 144.68
  L 228.97 152.25
  Q 228.64 154.02 229.97 152.75
  Q 237.41 145.67 247.39 148.79
  C 256.05 151.50 228.78 157.62 228.31 157.70
  A 0.73 0.71 1.6 0 0 227.72 158.24
  L 225.49 167.25
  Q 225.18 168.53 226.51 168.01
  Q 235.96 164.36 245.15 168.40
  C 246.98 169.20 246.98 170.60 244.92 171.01
  Q 235.01 173.02 225.02 171.29
  A 0.61 0.44 12.2 0 0 224.36 171.58
  L 220.46 184.20
  Q 220.14 185.24 221.18 184.71
  C 227.08 181.66 238.57 178.82 244.76 182.23
  Q 246.49 183.18 244.65 183.91
  Q 243.14 184.50 240.97 184.78
  Q 230.32 186.14 219.72 187.89
  A 1.10 0.77 1.1 0 0 218.91 188.43
  L 214.72 199.24
  Q 214.31 200.29 215.50 199.80
  C 222.39 196.98 233.76 194.29 241.03 196.56
  Q 244.10 197.52 241.19 198.62
  Q 227.78 203.69 213.51 203.17
  A 1.08 0.70 9.0 0 0 212.59 203.58
  L 208.15 212.41
  Q 207.67 213.37 208.51 213.04
  Q 220.55 208.29 233.51 209.44
  Q 235.37 209.61 236.38 210.15
  C 237.72 210.88 236.60 211.94 235.73 212.32
  Q 221.77 218.42 206.51 217.29
  A 0.87 0.77 14.9 0 0 205.71 217.69
  L 201.88 224.64
  Q 201.46 225.40 202.17 225.07
  Q 214.27 219.36 227.44 222.06
  Q 230.22 222.64 227.82 224.05
  Q 214.39 232.00 198.77 231.00
  A 0.99 0.83 16.0 0 0 197.94 231.37
  C 197.49 232.07 196.10 234.23 195.59 233.22
  A 1.27 0.50 -58.4 0 1 195.76 232.25
  L 196.26 231.25
  A 0.96 0.38 39.2 0 0 195.81 230.44
  L 191.05 226.20
  A 0.96 0.85 -47.9 0 0 189.78 226.34
  L 186.48 229.96
  Z
  M 221.65 119.34
  Q 220.53 118.24 221.03 119.77
  Q 223.39 126.97 229.23 131.77
  Q 230.70 132.99 230.99 131.51
  A 1.56 1.21 -61.4 0 0 230.82 130.45
  Q 226.82 124.44 221.65 119.34
  Z
  M 233.1458 129.8101
  A 5.40 1.21 130.6 0 0 237.5787 126.4974
  A 5.40 1.21 130.6 0 0 240.1742 121.6099
  A 5.40 1.21 130.6 0 0 235.7413 124.9226
  A 5.40 1.21 130.6 0 0 233.1458 129.8101
  Z
  M 216.41 124.85
  Q 214.65 123.32 215.26 125.48
  Q 218.34 136.34 228.55 140.95
  Q 230.63 141.89 229.47 140.04
  Q 224.07 131.46 216.41 124.85
  Z
  M 233.62 137.89
  Q 231.67 140.38 234.62 139.11
  Q 240.66 136.50 244.29 129.27
  Q 244.63 128.58 243.96 128.97
  Q 237.91 132.40 233.62 137.89
  Z
  M 213.33 136.80
  Q 212.08 135.61 212.01 137.33
  C 211.75 143.35 220.45 152.69 225.08 155.94
  Q 226.08 156.64 226.03 155.42
  C 225.80 149.45 218.15 141.36 213.33 136.80
  Z
  M 246.33 149.95
  Q 240.45 147.55 234.87 150.60
  C 233.37 151.41 227.62 155.15 228.27 156.52
  A 0.71 0.58 -17.6 0 0 229.02 156.82
  Q 237.99 154.74 246.33 150.85
  Q 247.36 150.37 246.33 149.95
  Z
  M 210.68 152.34
  Q 209.92 151.62 210.18 152.63
  C 211.37 157.28 216.77 167.88 222.40 168.81
  A 0.40 0.38 0.7 0 0 222.86 168.38
  C 222.30 163.73 214.32 155.81 210.68 152.34
  Z
  M 215.40 185.79
  Q 217.63 187.50 217.03 184.76
  C 215.41 177.27 210.08 171.61 205.07 166.16
  Q 203.52 164.48 204.20 166.66
  C 206.21 173.05 210.09 181.69 215.40 185.79
  Z
  M 243.60 168.81
  Q 235.02 165.59 226.50 169.01
  A 0.92 0.79 -8.3 0 0 225.96 169.63
  C 225.46 172.41 241.83 170.53 243.48 170.17
  Q 245.83 169.65 243.60 168.81
  Z
  M 198.45 179.31
  Q 196.36 176.75 197.03 179.99
  C 198.73 188.34 202.77 197.33 210.24 202.01
  Q 212.33 203.33 211.49 201.29
  Q 206.58 189.33 198.45 179.31
  Z
  M 239.83 181.98
  Q 230.42 181.13 222.21 185.65
  Q 221.75 185.91 222.26 185.88
  Q 231.20 185.50 239.91 183.79
  C 241.28 183.52 243.35 182.30 239.83 181.98
  Z
  M 205.10 214.41
  C 201.81 207.93 194.13 198.24 187.61 194.87
  Q 187.15 194.64 187.30 195.13
  C 189.61 203.20 195.10 213.89 204.00 216.03
  Q 206.19 216.56 205.10 214.41
  Z
  M 238.7073 197.5122
  A 11.87 1.88 -9.2 0 0 226.6894 197.5542
  A 11.87 1.88 -9.2 0 0 215.2727 201.3078
  A 11.87 1.88 -9.2 0 0 227.2906 201.2658
  A 11.87 1.88 -9.2 0 0 238.7073 197.5122
  Z
  M 234.78 210.63
  Q 220.63 208.71 207.72 214.61
  A 1.28 1.23 87.2 0 0 207.04 215.39
  C 205.89 219.00 231.52 214.10 235.04 211.52
  Q 236.04 210.80 234.78 210.63
  Z
  M 195.15 228.62
  Q 197.77 231.15 196.91 227.57
  Q 195.82 223.01 192.64 219.60
  A 0.44 0.44 38.5 0 0 191.93 219.68
  Q 190.79 221.70 191.01 224.00
  A 1.47 0.56 -88.5 0 0 191.33 224.92
  L 195.15 228.62
  Z
  M 226.00 222.98
  C 216.91 221.21 206.52 222.35 199.70 228.98
  Q 198.70 229.96 200.02 230.03
  Q 214.07 230.74 226.21 223.63
  Q 226.99 223.17 226.00 222.98
  Z"
/>
<path fill="#f3f2f2" d="
  M 98.00 107.29
  Q 100.95 108.27 105.77 108.22
  C 106.95 108.20 106.42 109.64 105.83 110.07
  C 101.80 113.00 103.31 115.91 102.61 119.74
  C 101.51 125.69 102.29 131.68 102.51 136.72
  A 1.05 0.87 -23.3 0 1 102.11 137.51
  Q 101.13 138.31 100.75 139.46
  Q 99.09 141.69 99.26 143.72
  Q 100.27 155.27 111.54 156.62
  A 1.07 1.03 76.8 0 1 112.30 157.11
  Q 114.89 161.31 118.72 164.27
  C 122.25 166.99 122.70 170.12 122.61 174.40
  A 1.20 1.15 82.7 0 1 121.79 175.51
  Q 112.88 178.18 103.57 177.95
  A 0.99 0.58 70.2 0 1 102.91 177.40
  Q 94.07 160.67 93.27 144.76
  C 92.69 133.08 92.23 120.44 95.01 109.01
  Q 95.56 106.73 98.00 107.29
  Z"
/>
<path fill="#170e09" d="
  M 97.50 199.46
  L 98.04 200.50
  C 93.24 204.98 88.44 209.04 85.32 215.15
  Q 83.38 218.93 87.55 218.09
  Q 89.15 217.77 92.25 215.46
  L 92.50 215.54
  L 88.69 218.51
  Q 88.32 218.79 87.83 218.86
  Q 86.55 219.04 85.48 219.71
  A 0.71 0.44 60.5 0 0 85.45 220.53
  L 90.54 229.72
  Q 91.43 231.34 92.05 229.53
  Q 93.76 224.53 96.96 220.27
  Q 99.18 223.30 100.05 227.11
  Q 96.66 232.72 91.22 232.34
  Q 79.89 222.01 64.16 225.18
  Q 62.08 225.60 64.02 226.76
  L 68.95 229.71
  Q 64.86 228.55 61.47 226.26
  Q 59.66 225.05 61.81 224.60
  Q 75.28 221.73 87.55 227.58
  Q 88.27 227.92 87.85 227.16
  L 83.99 220.01
  A 0.82 0.78 71.3 0 0 83.19 219.59
  C 73.30 220.92 63.54 218.63 54.36 215.01
  C 52.57 214.31 51.37 212.40 54.39 212.09
  Q 68.08 210.66 80.96 215.33
  Q 81.62 215.57 81.33 214.93
  L 77.19 206.03
  A 0.68 0.65 76.0 0 0 76.56 205.63
  Q 61.95 206.16 48.26 200.89
  Q 46.60 200.25 48.23 199.44
  C 54.60 196.23 68.35 199.75 74.70 202.38
  Q 75.47 202.70 75.20 202.02
  L 70.63 190.66
  A 1.10 0.70 -1.7 0 0 69.80 190.17
  Q 59.02 188.74 48.35 187.32
  Q 46.11 187.02 44.39 185.78
  Q 43.49 185.13 44.53 184.75
  C 53.22 181.58 59.92 184.05 68.08 186.92
  Q 69.61 187.46 69.12 185.92
  L 65.37 174.04
  A 0.65 0.50 75.6 0 0 64.77 173.57
  C 58.11 174.70 50.52 175.15 43.98 173.16
  A 0.93 0.81 4.5 0 1 43.36 172.53
  Q 43.09 171.28 44.34 170.78
  Q 54.10 166.94 63.42 170.53
  Q 64.52 170.96 64.24 169.75
  L 62.31 161.23
  A 1.16 1.14 -0.7 0 0 61.42 160.38
  Q 51.38 158.34 41.99 154.28
  Q 38.58 152.80 42.20 151.47
  C 50.24 148.52 53.78 151.32 60.32 155.54
  Q 60.87 155.89 60.76 155.25
  L 59.10 145.72
  A 1.36 0.56 21.6 0 0 58.35 144.99
  C 52.84 142.02 44.55 135.72 42.77 129.48
  Q 42.33 127.94 43.79 128.66
  Q 51.70 132.56 56.79 139.69
  Q 57.78 141.07 58.05 139.42
  C 58.44 137.10 57.21 135.20 55.35 133.56
  Q 51.33 130.01 47.80 124.93
  Q 44.80 120.61 49.77 122.31
  Q 51.59 122.94 54.30 125.86
  C 55.36 127.00 56.10 129.02 57.53 130.20
  Q 57.93 130.53 57.92 130.00
  C 57.89 127.01 57.45 124.32 58.28 121.41
  Q 60.17 114.78 62.35 108.26
  A 1.44 1.09 -89.1 0 1 62.93 107.52
  C 66.68 105.56 61.77 124.24 60.93 126.37
  A 1.18 0.71 -57.7 0 0 60.91 127.29
  C 61.28 127.90 68.93 118.75 69.87 117.82
  A 1.05 0.64 -51.7 0 1 70.74 117.50
  Q 71.24 117.66 71.05 118.50
  Q 68.47 129.48 59.48 136.05
  A 1.13 0.89 74.5 0 0 59.11 136.93
  L 59.22 139.50
  Q 59.29 141.14 60.33 139.84
  C 62.68 136.92 72.01 124.88 75.37 124.84
  A 0.46 0.46 -85.8 0 1 75.83 125.38
  Q 73.61 139.35 60.83 144.83
  A 0.68 0.68 73.6 0 0 60.43 145.57
  L 62.00 154.99
  Q 62.21 156.29 62.91 154.95
  Q 68.58 144.07 78.22 136.44
  Q 79.92 135.09 79.46 137.17
  C 77.45 146.22 72.28 155.56 63.90 159.98
  A 0.74 0.67 -21.7 0 0 63.52 160.75
  L 65.16 168.06
  Q 65.45 169.38 66.31 168.20
  C 69.63 163.68 75.11 155.06 79.84 152.03
  Q 82.18 150.53 81.42 153.20
  C 79.11 161.34 74.80 169.22 67.07 172.95
  A 0.67 0.67 68.5 0 0 66.72 173.76
  L 71.11 187.42
  Q 71.35 188.19 71.55 187.31
  Q 72.60 182.59 75.14 178.63
  C 76.37 176.70 86.65 162.54 87.66 165.04
  C 88.25 166.52 84.51 174.71 83.67 176.40
  C 80.51 182.74 78.36 187.18 72.95 190.46
  A 0.99 0.79 -27.3 0 0 72.48 191.51
  L 76.70 202.27
  Q 77.13 203.34 77.60 202.29
  C 80.07 196.74 87.24 182.35 92.31 179.21
  Q 94.45 177.89 94.09 180.38
  C 92.71 189.88 87.78 201.19 78.92 205.74
  A 0.62 0.54 63.5 0 0 78.72 206.52
  L 83.03 215.45
  Q 83.58 216.59 84.11 215.42
  C 87.30 208.44 92.31 204.77 97.50 199.46
  Z
  M 59.1808 127.2542
  A 7.45 1.30 103.5 0 0 62.1841 120.3135
  A 7.45 1.30 103.5 0 0 62.6592 112.7658
  A 7.45 1.30 103.5 0 0 59.6559 119.7065
  A 7.45 1.30 103.5 0 0 59.1808 127.2542
  Z
  M 58.9840 134.7801
  A 8.20 1.42 126.4 0 0 64.9929 129.0227
  A 8.20 1.42 126.4 0 0 68.7160 121.5799
  A 8.20 1.42 126.4 0 0 62.7071 127.3373
  A 8.20 1.42 126.4 0 0 58.9840 134.7801
  Z
  M 56.7624 132.5015
  A 5.67 1.15 49.5 0 0 53.9545 127.4431
  A 5.67 1.15 49.5 0 0 49.3976 123.8785
  A 5.67 1.15 49.5 0 0 52.2055 128.9369
  A 5.67 1.15 49.5 0 0 56.7624 132.5015
  Z
  M 73.24 126.95
  C 68.70 131.37 62.76 137.35 60.01 142.76
  Q 59.35 144.05 60.52 143.58
  Q 71.49 139.20 74.46 127.72
  Q 75.14 125.10 73.24 126.95
  Z
  M 56.5956 142.3066
  A 7.90 1.39 44.8 0 0 51.9694 135.7537
  A 7.90 1.39 44.8 0 0 45.3844 131.1734
  A 7.90 1.39 44.8 0 0 50.0106 137.7263
  A 7.90 1.39 44.8 0 0 56.5956 142.3066
  Z
  M 63.62 157.75
  Q 63.30 159.28 64.68 158.55
  C 70.73 155.31 75.66 146.25 77.74 139.98
  Q 78.22 138.54 76.80 139.07
  C 72.50 140.66 64.56 153.26 63.62 157.75
  Z
  M 60.85 158.01
  C 57.51 153.78 48.36 148.48 43.09 152.25
  Q 41.89 153.11 43.30 153.74
  Q 51.44 157.40 60.25 159.00
  Q 61.88 159.30 60.85 158.01
  Z
  M 77.79 155.70
  C 73.65 160.14 68.21 165.64 66.61 170.36
  Q 65.85 172.61 68.02 171.22
  Q 76.30 165.92 79.12 156.31
  Q 79.99 153.34 77.79 155.70
  Z
  M 84.35 169.04
  C 79.10 174.13 72.95 181.28 72.76 188.69
  Q 72.74 189.44 73.34 188.99
  C 79.16 184.63 83.37 176.03 85.33 169.64
  Q 86.01 167.44 84.35 169.04
  Z
  M 63.7873 172.0801
  A 9.01 1.86 1.4 0 0 54.8254 170.0006
  A 9.01 1.86 1.4 0 0 45.7727 171.6399
  A 9.01 1.86 1.4 0 0 54.7346 173.7194
  A 9.01 1.86 1.4 0 0 63.7873 172.0801
  Z
  M 91.54 181.50
  Q 84.50 190.31 79.58 199.83
  Q 75.75 207.24 81.57 203.19
  C 87.19 199.28 91.81 188.02 92.77 182.05
  Q 93.20 179.42 91.54 181.50
  Z
  M 67.61 188.14
  Q 58.57 182.99 48.30 184.72
  A 0.96 0.66 -4.0 0 0 47.53 185.33
  C 47.30 186.75 65.72 188.69 67.37 188.84
  Q 69.10 188.99 67.61 188.14
  Z
  M 74.57 203.69
  C 70.49 201.68 53.80 196.62 50.33 200.07
  A 0.37 0.33 30.6 0 0 50.51 200.63
  C 57.48 202.98 67.03 205.73 74.42 204.67
  Q 76.07 204.43 74.57 203.69
  Z
  M 82.17 217.86
  C 79.09 212.56 61.93 212.80 56.58 212.99
  C 54.55 213.06 54.74 214.17 56.43 214.84
  Q 68.51 219.59 81.51 219.06
  A 0.80 0.80 73.9 0 0 82.17 217.86
  Z
  M 96.11 223.09
  Q 92.97 226.42 92.93 230.99
  Q 92.92 232.42 93.96 231.47
  L 99.05 226.80
  A 0.81 0.50 57.7 0 0 99.04 225.98
  L 97.58 223.19
  A 0.95 0.86 -38.1 0 0 96.11 223.09
  Z"
/>
<ellipse fill="#b5a297" cx="0.00" cy="0.00" transform="translate(60.92,120.01) rotate(103.5)" rx="7.45" ry="1.30"/>
<path fill="#f3f2f2" d="
  M 207.53 118.50
  Q 210.66 117.33 211.22 119.45
  C 211.93 122.14 203.00 133.78 201.69 125.95
  C 201.31 123.68 201.80 113.70 205.64 115.18
  A 1.09 0.71 9.8 0 1 206.25 115.75
  L 206.98 118.24
  A 0.42 0.41 -19.1 0 0 207.53 118.50
  Z"
/>
<path fill="#b39f91" d="
  M 221.65 119.34
  Q 226.82 124.44 230.82 130.45
  A 1.56 1.21 -61.4 0 1 230.99 131.51
  Q 230.70 132.99 229.23 131.77
  Q 223.39 126.97 221.03 119.77
  Q 220.53 118.24 221.65 119.34
  Z"
/>
<ellipse fill="#b39f91" cx="0.00" cy="0.00" transform="translate(63.85,128.18) rotate(126.4)" rx="8.20" ry="1.42"/>
<ellipse fill="#b39f91" cx="0.00" cy="0.00" transform="translate(236.66,125.71) rotate(130.6)" rx="5.40" ry="1.21"/>
<path fill="#f6c7b8" d="
  M 180.71 135.25
  L 173.65 138.89
  Q 167.56 135.47 164.00 140.96
  Q 154.52 141.22 145.19 139.52
  Q 139.20 138.43 133.36 139.90
  Q 128.59 138.77 124.49 141.35
  Q 117.18 141.90 110.71 145.28
  L 110.46 142.25
  L 110.21 140.93
  A 0.92 0.76 70.5 0 1 110.54 140.03
  L 113.45 138.22
  Q 114.06 137.84 113.93 138.53
  C 113.36 141.43 115.00 141.02 115.99 139.47
  Q 120.13 132.96 127.76 131.30
  Q 130.16 130.78 128.25 132.26
  L 125.16 134.64
  Q 123.84 135.66 125.54 135.67
  Q 135.56 135.72 144.29 131.32
  C 147.50 129.70 150.10 126.80 152.68 124.23
  Q 153.33 123.58 153.25 124.49
  Q 152.56 131.62 146.53 135.26
  C 146.20 135.45 145.34 136.64 146.74 136.39
  Q 154.25 135.03 159.58 129.56
  Q 160.96 128.15 160.54 130.01
  Q 159.92 132.80 158.57 135.32
  Q 158.14 136.12 158.96 135.73
  C 162.95 133.80 165.16 126.55 166.70 122.69
  Q 167.38 120.98 167.99 122.74
  Q 169.65 127.61 173.12 131.37
  A 0.46 0.40 38.1 0 0 173.83 131.33
  Q 174.13 130.69 173.99 130.01
  Q 173.84 129.29 174.67 129.67
  Q 178.62 131.51 180.71 135.25
  Z"
/>
<ellipse fill="#b5a297" cx="0.00" cy="0.00" transform="translate(53.08,128.19) rotate(49.5)" rx="5.67" ry="1.15"/>
<path fill="#ba9f8e" d="
  M 216.41 124.85
  Q 224.07 131.46 229.47 140.04
  Q 230.63 141.89 228.55 140.95
  Q 218.34 136.34 215.26 125.48
  Q 214.65 123.32 216.41 124.85
  Z"
/>
<path fill="#ba9f8e" d="
  M 60.01 142.76
  C 62.76 137.35 68.70 131.37 73.24 126.95
  Q 75.14 125.10 74.46 127.72
  Q 71.49 139.20 60.52 143.58
  Q 59.35 144.05 60.01 142.76
  Z"
/>
<path fill="#b5a297" d="
  M 233.62 137.89
  Q 237.91 132.40 243.96 128.97
  Q 244.63 128.58 244.29 129.27
  Q 240.66 136.50 234.62 139.11
  Q 231.67 140.38 233.62 137.89
  Z"
/>
<ellipse fill="#b5a297" cx="0.00" cy="0.00" transform="translate(50.99,136.74) rotate(44.8)" rx="7.90" ry="1.39"/>
<path fill="#faf2e7" d="
  M 180.71 135.25
  C 182.76 137.94 182.25 140.76 184.41 143.36
  A 1.84 1.33 -75.5 0 1 184.76 144.25
  L 185.23 148.25
  A 0.43 0.42 -12.9 0 0 185.79 148.59
  Q 186.93 148.18 187.54 146.68
  C 185.49 177.29 145.64 175.22 125.92 167.36
  Q 111.32 161.54 110.71 145.28
  Q 117.18 141.90 124.49 141.35
  Q 123.83 142.38 124.26 142.76
  A 0.74 0.50 -42.7 0 0 125.10 142.63
  Q 129.28 139.12 133.91 142.13
  Q 134.51 142.52 134.50 141.83
  Q 134.48 140.92 133.36 139.90
  Q 139.20 138.43 145.19 139.52
  Q 154.52 141.22 164.00 140.96
  C 167.57 139.45 169.98 137.61 173.65 140.53
  A 0.61 0.48 39.3 0 0 174.42 140.55
  Q 174.96 139.92 173.65 138.89
  L 180.71 135.25
  Z
  M 129.4557 151.5433
  A 4.07 3.28 93.3 0 0 132.9646 147.6688
  A 4.07 3.28 93.3 0 0 129.9243 143.4167
  A 4.07 3.28 93.3 0 0 126.4154 147.2912
  A 4.07 3.28 93.3 0 0 129.4557 151.5433
  Z
  M 169.8633 151.0700
  A 3.83 3.22 90.1 0 0 173.0900 147.2456
  A 3.83 3.22 90.1 0 0 169.8767 143.4100
  A 3.83 3.22 90.1 0 0 166.6500 147.2344
  A 3.83 3.22 90.1 0 0 169.8633 151.0700
  Z
  M 135.7985 159.4470
  A 6.83 5.36 -1.2 0 0 128.8577 154.2312
  A 6.83 5.36 -1.2 0 0 122.1415 159.7330
  A 6.83 5.36 -1.2 0 0 129.0823 164.9488
  A 6.83 5.36 -1.2 0 0 135.7985 159.4470
  Z
  M 177.1445 160.5845
  A 6.84 5.17 2.3 0 0 170.5175 155.1442
  A 6.84 5.17 2.3 0 0 163.4755 160.0355
  A 6.84 5.17 2.3 0 0 170.1025 165.4758
  A 6.84 5.17 2.3 0 0 177.1445 160.5845
  Z
  M 153.21 158.22
  C 151.92 158.78 146.07 158.24 146.04 158.35
  A 0.91 0.49 24.3 0 0 146.60 159.08
  Q 150.01 160.84 153.50 159.29
  C 154.29 158.94 154.85 157.51 153.21 158.22
  Z"
/>
<path fill="#bfa194" d="
  M 213.33 136.80
  C 218.15 141.36 225.80 149.45 226.03 155.42
  Q 226.08 156.64 225.08 155.94
  C 220.45 152.69 211.75 143.35 212.01 137.33
  Q 212.08 135.61 213.33 136.80
  Z"
/>
<path fill="#faf2e7" d="
  M 109.29 142.75
  L 110.98 154.83
  A 0.43 0.39 86.8 0 1 110.58 155.32
  C 102.76 155.09 98.31 146.47 101.54 139.75
  Q 104.43 136.43 108.31 138.50
  A 1.07 0.91 13.1 0 1 108.86 139.24
  L 109.29 142.75
  Z
  M 107.37 144.59
  C 106.21 141.73 103.39 143.61 103.58 146.33
  C 103.81 149.42 108.47 147.30 107.37 144.59
  Z"
/>
<path fill="#2b1f14" d="
  M 173.65 138.89
  Q 174.96 139.92 174.42 140.55
  A 0.61 0.48 39.3 0 1 173.65 140.53
  C 169.98 137.61 167.57 139.45 164.00 140.96
  Q 167.56 135.47 173.65 138.89
  Z"
/>
<path fill="#ba9f8e" d="
  M 63.62 157.75
  C 64.56 153.26 72.50 140.66 76.80 139.07
  Q 78.22 138.54 77.74 139.98
  C 75.66 146.25 70.73 155.31 64.68 158.55
  Q 63.30 159.28 63.62 157.75
  Z"
/>
<path fill="#170e09" d="
  M 133.36 139.90
  Q 134.48 140.92 134.50 141.83
  Q 134.51 142.52 133.91 142.13
  Q 129.28 139.12 125.10 142.63
  A 0.74 0.50 -42.7 0 1 124.26 142.76
  Q 123.83 142.38 124.49 141.35
  Q 128.59 138.77 133.36 139.90
  Z"
/>
<path fill="#faf2e7" d="
  M 199.04 148.00
  Q 195.98 157.38 186.14 159.20
  Q 184.99 159.41 185.49 158.35
  Q 188.16 152.69 188.96 146.00
  C 187.65 137.75 200.24 136.47 199.04 148.00
  Z
  M 193.1952 151.5372
  A 3.22 2.04 92.4 0 0 195.3682 148.4054
  A 3.22 2.04 92.4 0 0 193.4648 145.1028
  A 3.22 2.04 92.4 0 0 191.2918 148.2346
  A 3.22 2.04 92.4 0 0 193.1952 151.5372
  Z"
/>
<path fill="#f6c7b8" d="
  M 107.37 144.59
  C 108.47 147.30 103.81 149.42 103.58 146.33
  C 103.39 143.61 106.21 141.73 107.37 144.59
  Z"
/>
<ellipse fill="#170e09" cx="0.00" cy="0.00" transform="translate(129.69,147.48) rotate(93.3)" rx="4.07" ry="3.28"/>
<ellipse fill="#241d17" cx="0.00" cy="0.00" transform="translate(169.87,147.24) rotate(90.1)" rx="3.83" ry="3.22"/>
<ellipse fill="#e8c9ba" cx="0.00" cy="0.00" transform="translate(193.33,148.32) rotate(92.4)" rx="3.22" ry="2.04"/>
<path fill="#ba9f8e" d="
  M 246.33 149.95
  Q 247.36 150.37 246.33 150.85
  Q 237.99 154.74 229.02 156.82
  A 0.71 0.58 -17.6 0 1 228.27 156.52
  C 227.62 155.15 233.37 151.41 234.87 150.60
  Q 240.45 147.55 246.33 149.95
  Z"
/>
<path fill="#b69a89" d="
  M 43.09 152.25
  C 48.36 148.48 57.51 153.78 60.85 158.01
  Q 61.88 159.30 60.25 159.00
  Q 51.44 157.40 43.30 153.74
  Q 41.89 153.11 43.09 152.25
  Z"
/>
<path fill="#b69a89" d="
  M 210.68 152.34
  C 214.32 155.81 222.30 163.73 222.86 168.38
  A 0.40 0.38 0.7 0 1 222.40 168.81
  C 216.77 167.88 211.37 157.28 210.18 152.63
  Q 209.92 151.62 210.68 152.34
  Z"
/>
<ellipse fill="#f6c7b8" cx="0.00" cy="0.00" transform="translate(128.97,159.59) rotate(-1.2)" rx="6.83" ry="5.36"/>
<path fill="#b39f91" d="
  M 77.79 155.70
  Q 79.99 153.34 79.12 156.31
  Q 76.30 165.92 68.02 171.22
  Q 65.85 172.61 66.61 170.36
  C 68.21 165.64 73.65 160.14 77.79 155.70
  Z"
/>
<ellipse fill="#f6c7b8" cx="0.00" cy="0.00" transform="translate(170.31,160.31) rotate(2.3)" rx="6.84" ry="5.17"/>
<path fill="#0e0907" d="
  M 146.04 158.35
  C 146.07 158.24 151.92 158.78 153.21 158.22
  C 154.85 157.51 154.29 158.94 153.50 159.29
  Q 150.01 160.84 146.60 159.08
  A 0.91 0.49 24.3 0 1 146.04 158.35
  Z"
/>
<path fill="#f3f2f2" d="
  M 170.11 177.36
  A 0.29 0.27 29.7 0 1 170.00 177.00
  L 173.45 169.94
  A 1.59 1.55 0.8 0 1 174.22 169.21
  Q 180.07 166.53 183.72 161.23
  A 1.74 1.06 -1.5 0 1 184.57 160.68
  L 192.86 158.24
  A 0.43 0.32 -11.2 0 1 193.40 158.50
  Q 193.71 173.09 187.04 185.98
  A 1.16 1.02 28.9 0 1 185.49 186.32
  L 170.11 177.36
  Z"
/>
<path fill="#bfa194" d="
  M 215.40 185.79
  C 210.09 181.69 206.21 173.05 204.20 166.66
  Q 203.52 164.48 205.07 166.16
  C 210.08 171.61 215.41 177.27 217.03 184.76
  Q 217.63 187.50 215.40 185.79
  Z"
/>
<path fill="#b69a89" d="
  M 243.60 168.81
  Q 245.83 169.65 243.48 170.17
  C 241.83 170.53 225.46 172.41 225.96 169.63
  A 0.92 0.79 -8.3 0 1 226.50 169.01
  Q 235.02 165.59 243.60 168.81
  Z"
/>
<path fill="#f3f2f2" d="
  M 139.50 173.71
  C 136.73 175.24 134.84 177.60 131.86 178.36
  Q 127.62 179.44 123.21 179.50
  Q 122.84 178.62 122.92 178.23
  Q 124.00 173.26 122.97 168.54
  Q 122.64 167.04 124.02 167.69
  Q 131.19 171.04 138.94 172.51
  A 1.04 0.64 5.2 0 1 139.75 173.11
  Q 139.81 173.44 139.50 173.71
  Z"
/>
<path fill="#ba9f8e" d="
  M 84.35 169.04
  Q 86.01 167.44 85.33 169.64
  C 83.37 176.03 79.16 184.63 73.34 188.99
  Q 72.74 189.44 72.76 188.69
  C 72.95 181.28 79.10 174.13 84.35 169.04
  Z"
/>
<ellipse fill="#b69a89" cx="0.00" cy="0.00" transform="translate(54.78,171.86) rotate(1.4)" rx="9.01" ry="1.86"/>
<path fill="#f3f2f2" d="
  M 167.49 182.58
  C 165.45 181.60 164.15 181.12 162.41 179.46
  Q 160.23 177.37 157.25 176.46
  Q 156.82 174.99 156.98 173.62
  A 0.69 0.59 -3.8 0 1 157.52 173.09
  L 171.26 170.28
  Q 172.62 170.00 171.94 171.19
  L 169.49 175.49
  A 2.18 1.71 -36.1 0 0 169.21 176.48
  Q 169.24 179.86 167.49 182.58
  Z"
/>
<path fill="#faf2e7" d="
  M 156.27 177.65
  Q 154.30 182.80 148.97 184.38
  A 1.36 0.77 -26.6 0 1 147.96 184.33
  L 140.56 179.44
  A 1.00 0.70 -72.8 0 1 140.27 178.54
  L 140.96 174.25
  Q 140.88 173.81 141.02 173.40
  A 0.77 0.65 9.2 0 1 141.75 172.96
  L 154.75 173.31
  A 0.84 0.63 -3.0 0 1 155.52 173.83
  L 156.27 177.65
  Z"
/>
<path fill="#1e2736" d="
  M 139.50 173.71
  L 140.96 174.25
  L 140.27 178.54
  A 1.00 0.70 -72.8 0 0 140.56 179.44
  L 147.96 184.33
  A 1.36 0.77 -26.6 0 0 148.97 184.38
  Q 154.30 182.80 156.27 177.65
  Q 156.57 176.98 157.25 176.46
  Q 160.23 177.37 162.41 179.46
  C 164.15 181.12 165.45 181.60 167.49 182.58
  L 167.74 185.07
  A 0.98 0.78 -27.1 0 1 167.39 185.84
  Q 166.74 186.39 167.50 187.04
  Q 165.86 188.87 165.23 191.26
  A 0.57 0.55 -87.5 0 0 165.86 191.97
  L 179.50 189.21
  Q 180.55 190.40 182.21 189.75
  C 187.01 198.90 190.97 206.70 191.96 216.50
  C 187.87 217.51 189.84 221.93 188.83 224.79
  Q 187.89 227.44 186.48 229.96
  C 184.84 232.16 181.71 231.09 181.76 235.03
  A 1.01 0.42 86.6 0 1 181.44 235.94
  Q 180.73 236.19 180.50 235.50
  A 0.89 0.69 -6.6 0 0 179.71 235.02
  C 157.37 234.74 135.35 235.62 112.99 234.26
  A 1.63 0.49 8.9 0 0 111.95 234.40
  Q 108.98 236.24 108.48 233.04
  Q 108.47 232.98 108.72 232.00
  L 109.29 229.76
  A 0.59 0.44 -3.4 0 0 108.55 229.28
  Q 103.68 230.40 100.05 227.11
  Q 99.18 223.30 96.96 220.27
  Q 95.86 216.96 96.14 213.56
  Q 96.19 212.95 95.73 213.27
  L 92.50 215.54
  L 92.25 215.46
  Q 98.07 209.43 98.55 200.96
  A 0.48 0.33 -80.8 0 0 98.34 200.52
  Q 98.21 200.47 98.04 200.50
  L 97.50 199.46
  Q 101.08 194.81 102.45 189.06
  A 1.36 1.13 83.5 0 1 102.96 188.28
  Q 104.61 187.17 106.71 187.00
  Q 107.93 189.56 109.79 187.25
  L 111.75 187.21
  L 122.07 189.16
  A 0.82 0.75 11.0 0 0 123.00 188.59
  Q 123.79 184.64 121.50 182.71
  Q 118.45 179.88 114.25 180.96
  L 114.50 180.04
  C 116.00 179.74 121.42 180.76 121.75 180.46
  L 123.21 179.50
  Q 127.62 179.44 131.86 178.36
  C 134.84 177.60 136.73 175.24 139.50 173.71
  Z"
/>
<path fill="#f3e8de" d="
  M 121.75 180.46
  C 121.42 180.76 116.00 179.74 114.50 180.04
  Q 111.15 180.90 108.45 183.05
  A 0.64 0.60 -44.0 0 1 107.66 183.06
  Q 105.95 181.65 106.24 179.61
  A 0.64 0.55 -87.2 0 1 106.76 179.06
  Q 113.72 178.68 120.49 176.95
  A 1.27 1.06 -5.1 0 1 122.09 178.06
  L 121.75 180.46
  Z"
/>
<path fill="#bfa194" d="
  M 198.45 179.31
  Q 206.58 189.33 211.49 201.29
  Q 212.33 203.33 210.24 202.01
  C 202.77 197.33 198.73 188.34 197.03 179.99
  Q 196.36 176.75 198.45 179.31
  Z"
/>
<path fill="#f3e8de" d="
  M 183.92 186.58
  A 0.25 0.22 43.8 0 1 183.95 186.96
  L 181.26 188.77
  A 0.82 0.52 57.5 0 1 180.36 188.35
  Q 176.94 182.82 170.25 184.22
  A 1.07 1.04 0.2 0 1 168.98 182.98
  L 169.85 179.08
  A 0.46 0.45 18.7 0 1 170.49 178.77
  Q 177.57 182.06 183.92 186.58
  Z"
/>
<path fill="#ba9f8e" d="
  M 91.54 181.50
  Q 93.20 179.42 92.77 182.05
  C 91.81 188.02 87.19 199.28 81.57 203.19
  Q 75.75 207.24 79.58 199.83
  Q 84.50 190.31 91.54 181.50
  Z"
/>
<path fill="#e8c9ba" d="
  M 121.50 182.71
  C 118.16 184.84 113.77 181.81 111.75 187.21
  L 109.79 187.25
  C 103.88 187.14 112.54 181.40 114.25 180.96
  Q 118.45 179.88 121.50 182.71
  Z"
/>
<path fill="#b5a297" d="
  M 239.83 181.98
  C 243.35 182.30 241.28 183.52 239.91 183.79
  Q 231.20 185.50 222.26 185.88
  Q 221.75 185.91 222.21 185.65
  Q 230.42 181.13 239.83 181.98
  Z"
/>
<path fill="#faf2e7" d="
  M 121.50 182.71
  Q 123.79 184.64 123.00 188.59
  A 0.82 0.75 11.0 0 1 122.07 189.16
  L 111.75 187.21
  C 113.77 181.81 118.16 184.84 121.50 182.71
  Z"
/>
<path fill="#b39f91" d="
  M 67.61 188.14
  Q 69.10 188.99 67.37 188.84
  C 65.72 188.69 47.30 186.75 47.53 185.33
  A 0.96 0.66 -4.0 0 1 48.30 184.72
  Q 58.57 182.99 67.61 188.14
  Z"
/>
<path fill="#f7d7cc" d="
  M 179.50 189.21
  L 165.86 191.97
  A 0.57 0.55 -87.5 0 1 165.23 191.26
  Q 165.86 188.87 167.50 187.04
  Q 174.93 181.56 179.50 189.21
  Z"
/>
<path fill="#ba9f8e" d="
  M 187.61 194.87
  C 194.13 198.24 201.81 207.93 205.10 214.41
  Q 206.19 216.56 204.00 216.03
  C 195.10 213.89 189.61 203.20 187.30 195.13
  Q 187.15 194.64 187.61 194.87
  Z"
/>
<ellipse fill="#bfa194" cx="0.00" cy="0.00" transform="translate(226.99,199.41) rotate(-9.2)" rx="11.87" ry="1.88"/>
<path fill="#b69a89" d="
  M 74.57 203.69
  Q 76.07 204.43 74.42 204.67
  C 67.03 205.73 57.48 202.98 50.51 200.63
  A 0.37 0.33 30.6 0 1 50.33 200.07
  C 53.80 196.62 70.49 201.68 74.57 203.69
  Z"
/>
<path fill="#ba9f8e" d="
  M 98.04 200.50
  Q 98.21 200.47 98.34 200.52
  A 0.48 0.33 -80.8 0 1 98.55 200.96
  Q 98.07 209.43 92.25 215.46
  Q 89.15 217.77 87.55 218.09
  Q 83.38 218.93 85.32 215.15
  C 88.44 209.04 93.24 204.98 98.04 200.50
  Z"
/>
<path fill="#bfa194" d="
  M 234.78 210.63
  Q 236.04 210.80 235.04 211.52
  C 231.52 214.10 205.89 219.00 207.04 215.39
  A 1.28 1.23 87.2 0 1 207.72 214.61
  Q 220.63 208.71 234.78 210.63
  Z"
/>
<path fill="#b69a89" d="
  M 56.58 212.99
  C 61.93 212.80 79.09 212.56 82.17 217.86
  A 0.80 0.80 73.9 0 1 81.51 219.06
  Q 68.51 219.59 56.43 214.84
  C 54.74 214.17 54.55 213.06 56.58 212.99
  Z"
/>
<path fill="#bbb596" d="
  M 96.96 220.27
  Q 93.76 224.53 92.05 229.53
  Q 91.43 231.34 90.54 229.72
  L 85.45 220.53
  A 0.71 0.44 60.5 0 1 85.48 219.71
  Q 86.55 219.04 87.83 218.86
  Q 88.32 218.79 88.69 218.51
  L 92.50 215.54
  L 95.73 213.27
  Q 96.19 212.95 96.14 213.56
  Q 95.86 216.96 96.96 220.27
  Z"
/>
<path fill="#b5a297" d="
  M 195.15 228.62
  L 191.33 224.92
  A 1.47 0.56 -88.5 0 1 191.01 224.00
  Q 190.79 221.70 191.93 219.68
  A 0.44 0.44 38.5 0 1 192.64 219.60
  Q 195.82 223.01 196.91 227.57
  Q 197.77 231.15 195.15 228.62
  Z"
/>
<path fill="#ba9f8e" d="
  M 226.00 222.98
  Q 226.99 223.17 226.21 223.63
  Q 214.07 230.74 200.02 230.03
  Q 198.70 229.96 199.70 228.98
  C 206.52 222.35 216.91 221.21 226.00 222.98
  Z"
/>
<path fill="#ba9f8e" d="
  M 96.11 223.09
  A 0.95 0.86 -38.1 0 1 97.58 223.19
  L 99.04 225.98
  A 0.81 0.50 57.7 0 1 99.05 226.80
  L 93.96 231.47
  Q 92.92 232.42 92.93 230.99
  Q 92.97 226.42 96.11 223.09
  Z"
/>
<path fill="#b69a89" d="
  M 91.22 232.34
  C 88.61 232.85 86.18 231.81 84.26 231.65
  Q 76.53 230.99 68.95 229.71
  L 64.02 226.76
  Q 62.08 225.60 64.16 225.18
  Q 79.89 222.01 91.22 232.34
  Z"
/>
</svg>
